<?xml version="1.0" encoding="UTF-8" ?>
<!DOCTYPE svg PUBLIC "-//W3C//DTD SVG 1.1//EN" "http://www.w3.org/Graphics/SVG/1.1/DTD/svg11.dtd">
<svg width="1024pt" height="1024pt" viewBox="0 0 1024 1024" version="1.1" xmlns="http://www.w3.org/2000/svg">
<g id="#072f2bff">
<path fill="#072f2b" opacity="1.00" d=" M 489.32 24.27 C 504.72 9.79 525.91 2.09 546.97 2.35 C 559.83 3.10 572.91 6.00 583.96 12.87 C 597.60 20.93 608.25 33.60 614.57 48.06 C 619.77 60.48 621.60 74.12 621.15 87.51 C 636.58 78.94 654.36 74.33 672.04 75.21 C 688.95 75.70 705.86 81.20 719.09 91.90 C 735.08 104.94 745.37 125.26 744.84 146.06 C 744.86 153.44 742.96 160.63 740.79 167.63 C 757.39 171.65 772.93 181.01 783.18 194.81 C 794.15 209.23 798.85 228.16 795.92 246.05 C 791.98 271.11 775.58 292.87 755.17 307.24 C 743.63 314.74 730.94 320.41 717.76 324.34 C 724.90 330.91 732.33 337.27 738.33 344.95 C 750.06 359.56 757.29 378.15 756.74 397.02 C 756.62 415.59 749.11 433.89 736.31 447.32 C 718.17 467.15 689.49 475.71 663.24 471.42 C 662.40 480.35 661.00 489.30 657.63 497.66 C 650.20 515.50 636.07 530.74 618.03 538.09 C 600.00 545.13 579.55 546.17 561.01 540.43 C 555.83 538.86 551.15 536.00 545.97 534.43 C 537.51 548.10 528.54 562.00 524.74 577.81 C 523.84 594.53 524.46 611.30 524.27 628.04 C 524.27 687.04 524.30 746.05 524.32 805.05 C 524.34 840.95 524.19 876.89 525.30 912.77 C 527.99 910.31 527.76 906.38 528.69 903.12 C 533.05 886.74 533.18 869.71 534.39 852.91 C 536.02 835.61 536.06 818.20 537.57 800.89 C 538.93 782.81 541.27 764.79 545.04 747.05 C 549.91 723.83 555.93 700.77 564.48 678.61 C 574.78 652.57 588.06 627.51 605.75 605.71 C 610.69 599.66 615.47 593.43 621.21 588.11 C 623.77 585.68 627.10 584.17 629.43 581.48 C 643.95 561.86 662.25 545.22 682.03 531.01 C 687.02 527.75 691.88 523.54 698.03 522.82 C 702.85 522.10 707.20 524.92 710.84 527.73 C 712.34 531.47 713.18 536.06 710.43 539.47 C 706.72 543.91 701.26 546.33 696.69 549.74 C 685.16 558.00 674.58 567.54 664.73 577.74 C 661.58 580.99 658.36 584.22 655.80 587.98 C 652.65 592.41 650.65 597.85 646.00 601.02 C 640.39 604.96 635.03 609.26 630.03 613.93 C 616.98 630.16 605.51 647.68 596.29 666.37 C 585.27 688.56 578.31 712.45 572.43 736.43 C 567.59 756.37 564.67 776.73 562.81 797.14 C 561.36 819.18 560.35 841.37 562.59 863.39 C 566.40 858.10 569.17 852.17 572.82 846.78 C 582.05 832.74 590.67 818.27 600.82 804.86 C 608.06 794.50 615.67 784.39 622.97 774.07 C 625.67 770.35 628.23 766.50 631.45 763.19 C 630.62 758.86 629.04 754.74 627.72 750.56 C 622.37 731.43 619.34 711.75 617.08 692.04 C 615.98 679.90 614.50 667.66 615.67 655.48 C 616.15 648.58 624.58 643.51 630.70 647.26 C 634.73 649.21 634.93 654.20 635.33 658.08 C 637.06 678.93 639.71 699.72 643.61 720.29 C 645.06 727.39 646.47 734.54 648.82 741.42 C 652.40 735.59 656.94 730.47 661.17 725.13 C 667.61 717.24 673.72 709.07 680.28 701.28 C 681.94 699.23 684.09 697.49 685.17 695.04 C 685.30 690.27 684.13 685.58 683.73 680.85 C 682.31 670.20 681.82 659.47 681.25 648.76 C 681.09 641.91 681.12 635.06 681.39 628.22 C 682.38 617.17 682.87 606.02 685.42 595.18 C 687.80 592.42 688.88 588.88 690.76 585.82 C 693.35 581.80 699.06 580.96 703.18 582.87 C 707.10 586.61 704.56 592.31 704.09 596.89 C 704.54 597.28 705.43 598.06 705.88 598.45 C 702.00 623.95 701.45 650.01 704.97 675.59 C 714.16 665.60 723.81 656.04 733.22 646.27 C 745.73 633.40 759.40 621.78 772.74 609.81 C 783.13 600.86 793.14 591.42 804.17 583.24 C 807.33 581.20 807.12 577.09 807.77 573.82 C 811.39 546.56 818.50 519.91 826.60 493.67 C 829.32 485.91 831.82 478.07 833.98 470.13 C 835.16 466.65 835.99 462.98 837.81 459.77 C 840.26 456.43 844.08 454.41 847.84 452.87 C 863.93 446.36 881.00 442.76 898.00 439.49 C 922.39 435.06 947.38 434.62 972.06 436.39 C 984.90 437.92 998.48 437.83 1010.31 443.69 C 1017.13 446.87 1020.11 454.45 1020.75 461.52 C 1024.61 492.52 1024.60 523.93 1021.91 555.03 C 1018.34 598.16 1007.38 640.44 991.86 680.77 C 984.24 701.31 974.96 721.44 962.34 739.42 C 958.13 744.79 954.17 750.50 948.83 754.83 C 941.39 761.15 933.07 766.53 923.88 769.91 C 921.04 770.71 920.72 774.12 919.25 776.26 C 908.04 796.08 887.35 808.67 865.88 814.75 C 861.00 827.68 851.47 838.61 839.68 845.72 C 830.73 851.63 820.69 855.68 810.41 858.61 C 808.37 859.04 807.66 861.17 806.66 862.72 C 801.44 871.86 793.24 878.79 784.54 884.49 C 769.87 893.71 753.23 900.05 735.98 902.04 C 732.34 902.68 728.12 901.55 724.98 903.92 C 714.43 911.81 701.48 915.44 688.87 918.50 C 672.57 922.08 655.68 924.28 639.04 921.95 C 635.99 921.75 632.79 920.74 629.81 921.73 C 608.10 931.90 586.64 944.40 571.51 963.45 C 562.34 974.93 556.09 988.48 551.69 1002.44 C 549.80 1008.24 548.88 1014.30 547.21 1020.15 C 522.01 1022.42 496.61 1022.42 471.39 1020.39 C 471.15 1020.28 470.65 1020.04 470.40 1019.93 C 467.57 1008.84 464.54 997.72 459.68 987.32 C 455.61 977.68 449.69 968.96 443.18 960.82 C 429.47 943.95 410.70 932.10 391.38 922.66 C 387.85 920.61 383.73 921.95 379.95 922.21 C 366.96 923.35 353.84 922.03 341.12 919.29 C 326.67 916.64 312.56 911.75 299.92 904.24 C 297.40 902.86 295.17 900.17 292.04 900.66 C 276.73 902.44 261.21 899.44 246.87 894.12 C 233.74 888.66 221.07 881.25 211.62 870.45 C 207.09 865.43 204.03 859.25 202.18 852.79 C 193.53 850.54 185.46 846.57 177.57 842.45 C 163.96 834.96 151.77 823.81 145.49 809.38 C 144.43 807.12 141.50 807.16 139.50 806.24 C 117.42 797.90 98.77 781.70 86.02 761.97 C 80.51 753.45 75.16 744.69 72.01 734.98 C 70.37 730.90 70.20 725.54 65.86 723.24 C 57.66 718.25 51.61 710.60 46.17 702.86 C 34.45 685.66 27.98 665.67 21.64 646.05 C 16.43 627.51 11.02 608.96 7.89 589.93 C 2.35 560.99 -1.04 531.48 0.38 501.98 C 0.57 497.63 1.98 493.21 5.22 490.16 C 11.24 484.02 20.10 482.58 28.05 480.44 C 46.47 476.43 65.14 473.39 83.97 472.24 C 101.33 471.25 118.76 471.62 136.10 472.83 C 148.50 473.85 160.97 474.87 173.06 477.94 C 177.61 479.24 182.35 477.97 186.98 478.62 C 195.43 479.60 203.69 481.77 211.92 483.91 C 223.16 486.90 234.29 490.38 245.01 494.93 C 254.34 498.93 264.08 502.59 272.09 508.98 C 275.71 511.60 277.54 516.05 276.98 520.48 C 276.11 524.40 273.91 528.60 269.73 529.70 C 264.51 531.20 259.38 528.78 254.94 526.24 C 234.31 514.99 211.46 508.82 188.70 503.54 C 192.88 511.68 196.63 520.03 200.96 528.09 C 202.94 532.16 205.16 536.39 205.25 541.01 C 204.47 546.95 197.57 550.37 192.09 549.10 C 187.99 547.86 185.43 544.11 183.27 540.66 C 175.72 528.09 168.97 515.05 161.61 502.37 C 160.69 501.05 159.91 499.15 158.02 499.20 C 147.87 498.07 137.68 497.23 127.50 496.38 C 125.59 496.20 123.67 496.03 121.76 495.87 C 122.56 497.46 123.36 499.04 124.23 500.60 C 127.77 507.23 133.37 513.30 134.05 521.05 C 132.81 528.08 122.87 532.62 117.08 527.89 C 111.97 523.86 109.17 517.79 105.38 512.65 C 101.36 507.11 98.21 500.94 93.86 495.66 C 89.90 495.14 85.91 495.87 81.95 496.08 C 63.01 497.80 44.13 500.76 25.79 505.86 C 25.12 507.14 24.63 508.52 24.67 510.01 C 24.44 525.06 25.86 540.07 27.46 555.02 C 37.40 554.85 47.14 552.51 57.08 552.24 C 59.72 554.22 62.13 556.55 63.89 559.36 C 64.78 563.52 63.41 567.63 61.52 571.30 C 55.42 575.24 47.88 575.35 40.94 576.62 C 37.50 577.11 34.05 577.63 30.61 578.14 C 32.86 590.17 35.47 602.18 39.13 613.86 C 52.32 611.98 65.52 610.20 78.75 608.64 L 79.34 608.60 C 115.09 605.70 150.91 603.55 186.77 602.71 C 177.00 595.46 165.85 590.39 154.98 585.04 C 137.85 576.52 119.55 570.78 102.12 562.96 C 93.26 558.94 84.33 555.06 75.55 550.86 C 69.81 547.89 63.98 545.09 58.04 542.53 C 53.18 540.48 48.10 536.77 47.89 530.99 C 46.86 525.26 51.84 518.44 58.05 519.81 C 63.20 520.32 67.92 522.57 72.62 524.55 C 82.96 529.18 93.34 533.72 103.62 538.48 C 121.05 546.64 139.62 552.02 157.13 560.02 C 174.68 567.72 191.60 576.88 207.58 587.48 C 220.08 595.79 232.77 604.06 243.54 614.61 C 240.73 595.97 236.12 577.68 231.39 559.46 C 230.29 554.76 228.81 549.56 230.78 544.90 C 233.79 538.40 244.28 538.12 247.80 544.26 C 251.23 550.09 252.71 556.79 254.76 563.18 C 261.00 586.01 265.88 609.25 268.04 632.84 C 286.42 648.93 304.28 665.65 320.93 683.53 C 320.33 658.75 315.93 634.21 309.71 610.27 C 308.36 604.84 306.34 599.54 305.83 593.94 C 305.02 587.93 311.08 582.50 316.97 583.42 C 323.21 583.59 325.98 590.13 327.73 595.17 C 337.97 627.04 342.85 660.57 342.70 694.03 C 342.72 697.55 342.27 701.09 342.64 704.60 C 344.22 707.71 347.14 709.88 349.26 712.62 C 364.24 730.63 379.58 748.41 392.99 767.64 C 395.55 741.76 393.26 715.69 389.38 690.06 C 388.23 682.37 386.32 674.81 385.39 667.08 C 385.08 664.19 384.84 661.01 386.45 658.44 C 389.73 652.67 399.49 652.17 402.85 658.14 C 406.22 664.27 407.27 671.34 408.98 678.05 C 412.78 693.86 414.59 710.06 415.64 726.26 C 415.92 738.59 416.42 750.95 415.31 763.25 C 414.84 771.99 414.15 780.75 412.28 789.32 C 411.46 792.17 413.93 794.39 415.29 796.61 C 420.88 803.86 425.93 811.49 430.82 819.22 C 439.02 831.29 446.27 843.95 453.79 856.44 C 455.13 858.82 456.47 861.19 457.89 863.54 C 459.16 857.77 458.89 851.84 459.08 845.98 C 459.08 837.81 459.10 829.63 458.74 821.46 C 458.25 801.82 455.57 782.31 452.60 762.91 C 451.58 756.15 450.12 749.47 448.36 742.87 C 440.40 706.12 426.53 670.23 404.36 639.64 C 401.44 635.73 398.41 631.90 395.12 628.29 C 392.03 631.00 388.45 633.93 384.03 633.39 C 378.64 633.18 375.48 627.89 374.58 623.13 C 372.64 613.51 373.41 603.39 376.21 594.02 C 379.96 589.96 386.52 587.66 391.70 590.37 C 397.84 593.60 402.27 599.11 407.11 603.93 C 416.99 613.95 425.09 625.51 432.74 637.27 C 455.14 672.64 468.78 712.96 476.51 753.94 C 480.81 778.41 483.43 803.16 484.41 827.99 C 485.16 846.32 485.67 864.68 486.94 882.99 C 487.77 894.80 490.24 906.39 492.17 918.05 C 492.27 919.13 492.82 919.93 493.82 920.44 C 495.35 908.04 494.90 895.48 495.47 883.01 C 495.57 831.02 495.76 779.02 495.85 727.03 C 495.73 680.36 495.74 633.70 495.80 587.03 C 495.91 582.16 495.26 577.22 493.28 572.74 C 490.18 565.64 487.02 558.38 482.91 551.88 C 480.30 553.12 478.14 555.08 475.82 556.76 C 460.33 567.87 441.02 573.86 421.93 572.63 C 409.54 571.97 397.62 567.41 387.18 560.84 C 363.69 546.21 349.17 519.12 348.01 491.69 C 341.74 493.02 335.51 494.60 329.11 495.20 C 309.33 497.62 288.53 491.66 273.36 478.64 C 260.50 467.15 251.29 451.27 249.12 434.04 C 247.11 416.65 251.37 398.89 259.68 383.59 C 262.98 377.31 267.70 371.94 271.43 365.93 C 249.37 365.49 227.22 357.02 211.48 341.36 C 201.61 331.88 195.01 319.25 192.07 305.94 C 188.70 288.16 191.28 269.06 200.21 253.23 C 205.56 243.97 212.54 235.56 221.13 229.16 C 225.46 225.90 230.25 223.35 234.73 220.32 C 226.00 207.81 222.82 191.92 225.14 176.92 C 227.37 158.29 238.68 141.59 253.68 130.70 C 267.45 121.00 284.35 116.49 301.03 115.84 C 316.98 114.93 333.08 117.76 347.93 123.58 C 346.39 114.82 344.73 105.96 345.35 97.03 C 346.17 79.54 350.80 61.67 361.71 47.67 C 373.69 30.67 393.29 19.56 413.86 17.17 C 427.55 15.64 441.93 16.62 454.59 22.41 C 462.95 26.50 471.37 31.26 477.16 38.75 C 480.84 33.62 484.83 28.71 489.32 24.27 M 524.88 30.62 C 509.62 36.54 497.81 49.50 491.47 64.40 C 489.45 68.81 488.33 73.64 485.76 77.78 C 483.36 81.61 477.02 82.77 474.11 78.93 C 469.94 73.88 467.69 67.58 463.66 62.43 C 456.85 52.82 446.94 45.18 435.39 42.37 C 423.51 39.56 410.54 40.85 399.74 46.68 C 388.02 52.37 379.34 63.11 374.47 75.02 C 368.45 91.69 369.45 110.24 374.89 126.92 C 378.01 137.20 383.26 146.61 387.69 156.34 L 388.16 156.56 C 388.14 160.67 389.13 165.71 385.98 168.97 C 382.51 171.67 377.70 171.18 373.63 170.54 C 368.57 166.91 364.59 162.04 359.59 158.35 C 345.00 146.91 326.57 140.86 308.16 139.93 C 292.77 139.59 276.25 142.83 264.52 153.45 C 254.12 161.95 247.95 175.62 249.28 189.09 C 250.32 200.46 256.40 210.79 264.30 218.81 C 266.70 221.64 270.19 224.02 270.92 227.88 C 271.17 231.52 268.56 234.84 265.29 236.16 C 260.95 237.87 256.28 238.50 251.93 240.15 C 238.85 244.94 227.11 254.24 220.84 266.83 C 213.21 281.62 213.28 300.52 222.26 314.72 C 228.37 324.91 238.40 332.32 249.29 336.75 C 266.09 342.99 284.58 342.52 301.96 339.28 C 305.28 338.59 308.75 338.24 311.86 336.78 C 317.04 336.56 322.61 339.22 324.90 344.01 C 326.07 348.61 324.21 353.51 320.86 356.73 C 313.50 360.30 307.23 365.66 301.02 370.90 C 287.98 382.44 277.31 397.67 274.22 415.07 C 271.44 429.98 276.20 446.18 286.90 456.99 C 295.52 466.39 308.46 470.79 321.00 471.05 C 333.60 470.89 346.08 467.26 357.03 461.05 C 361.15 458.91 365.08 456.36 369.36 454.51 C 371.82 453.28 375.31 455.17 375.21 458.02 C 375.12 464.10 373.27 469.99 372.90 476.06 C 370.90 495.65 376.15 516.66 389.76 531.30 C 398.90 541.51 412.24 548.12 426.03 548.34 C 437.24 548.89 448.36 545.55 457.93 539.82 C 468.22 533.05 477.47 524.49 484.42 514.28 C 491.03 505.58 496.74 496.11 500.93 486.01 C 498.00 477.94 495.24 469.58 495.31 460.90 C 495.45 454.60 501.64 448.86 508.01 449.93 C 510.60 450.26 512.53 452.14 514.18 454.00 C 515.82 456.62 517.35 459.30 518.84 462.01 C 522.62 476.09 531.36 488.30 541.12 498.90 C 549.44 506.98 559.08 514.27 570.39 517.49 C 585.43 521.85 602.67 520.71 615.85 511.72 C 622.71 506.67 628.78 500.33 632.81 492.78 C 639.41 480.05 640.10 464.86 636.56 451.12 C 635.46 447.29 635.64 442.60 639.16 440.06 C 642.27 439.05 645.51 440.44 648.42 441.52 C 661.99 447.24 677.35 449.63 691.84 446.31 C 703.10 443.95 712.96 437.03 720.39 428.42 C 730.94 416.13 734.01 398.44 729.96 382.97 C 726.61 368.55 716.67 356.72 705.67 347.29 C 697.91 340.82 689.62 334.89 680.84 329.91 C 677.76 327.55 674.47 324.87 673.36 321.00 C 672.42 316.39 674.37 310.68 679.02 308.86 C 683.14 307.01 687.67 306.42 692.04 305.44 C 699.69 303.92 707.22 301.84 714.61 299.37 L 713.75 299.11 L 714.66 299.38 C 729.04 295.26 742.56 287.71 753.18 277.12 C 763.36 266.61 771.05 252.85 771.54 237.96 C 772.25 227.28 768.93 216.27 761.79 208.22 C 754.61 199.31 743.96 193.86 733.03 191.11 C 725.83 189.35 718.37 189.79 711.04 189.37 C 707.88 189.28 705.18 186.21 705.54 183.07 C 705.84 178.52 709.21 175.12 711.42 171.38 C 718.84 160.24 722.12 145.90 718.09 132.91 C 714.81 121.36 705.89 112.29 695.78 106.31 C 684.63 100.29 671.47 97.98 658.95 99.89 C 641.55 102.20 625.53 111.95 614.57 125.53 C 609.19 131.90 604.96 139.15 599.54 145.48 L 599.19 146.74 L 599.10 145.47 C 595.57 146.09 591.25 147.46 588.19 144.83 C 585.87 143.24 585.54 140.26 584.13 138.05 C 585.20 127.85 590.10 118.67 592.74 108.87 C 597.06 93.15 597.79 76.02 592.33 60.48 C 587.07 45.50 574.22 33.54 559.02 29.06 C 547.86 25.80 535.76 26.77 524.88 30.62 M 929.35 459.41 C 924.58 469.07 919.06 478.35 913.66 487.66 C 910.32 493.10 907.17 499.28 901.20 502.26 C 897.10 503.89 891.98 502.11 889.73 498.32 C 887.16 494.58 887.87 489.56 889.65 485.65 C 893.36 478.11 897.81 470.97 901.71 463.54 C 888.48 465.90 875.24 468.51 862.40 472.53 C 860.86 473.14 858.94 473.53 858.13 475.14 C 855.79 479.40 854.30 484.06 852.70 488.63 C 843.89 512.77 836.54 537.49 831.55 562.71 C 833.59 561.47 835.56 560.09 837.45 558.61 C 853.56 547.55 868.93 535.16 886.59 526.58 C 891.08 524.43 896.83 523.81 900.99 527.04 C 906.06 530.20 907.07 538.44 902.16 542.21 C 894.22 548.48 884.82 552.62 876.88 558.90 C 907.60 558.31 938.34 559.38 969.06 559.73 L 968.99 559.92 C 978.31 560.05 987.61 560.60 996.91 561.05 C 997.75 550.24 998.28 539.42 999.29 528.63 C 993.93 528.18 988.56 527.98 983.22 527.40 C 980.49 525.71 977.10 524.22 976.03 520.93 C 973.77 514.03 978.89 505.31 986.44 505.00 C 990.49 505.22 994.54 505.07 998.60 505.07 C 998.49 492.67 998.17 480.23 996.51 467.93 C 996.21 466.64 995.93 465.36 995.66 464.09 C 974.01 458.85 951.49 459.02 929.35 459.41 M 811.06 607.63 C 826.01 605.87 841.02 604.85 855.97 603.09 C 868.97 601.78 881.96 600.24 894.98 599.14 C 898.52 598.85 902.68 598.83 905.16 601.84 C 909.90 606.39 908.59 615.97 902.00 618.02 C 895.45 619.75 888.67 620.39 881.99 621.50 C 851.78 625.31 821.45 628.19 791.07 630.28 C 787.66 630.55 783.92 630.79 781.45 633.48 C 770.84 643.26 760.03 652.84 749.75 662.97 C 769.51 662.56 789.27 662.64 809.03 662.12 C 824.19 662.03 839.31 660.86 854.45 660.21 C 856.64 661.81 859.50 661.36 862.06 661.42 C 868.00 661.22 873.97 661.64 879.89 660.84 C 886.23 659.97 892.63 660.44 899.01 660.22 C 900.55 659.99 902.97 660.37 903.28 658.15 C 912.33 657.72 921.39 657.61 930.44 657.23 C 945.20 657.39 959.96 657.51 974.73 657.40 C 977.82 647.28 980.90 637.16 984.17 627.09 C 988.10 612.98 991.47 598.67 993.53 584.15 C 981.21 583.44 968.88 582.90 956.56 582.11 C 931.37 581.13 906.16 580.59 880.95 580.44 C 869.65 580.41 858.32 579.82 847.05 580.34 C 834.28 588.33 823.09 598.59 811.06 607.63 M 167.95 624.81 C 141.27 626.11 114.64 628.18 88.04 630.67 C 73.68 632.26 59.40 634.49 45.08 636.37 C 48.12 647.39 51.89 658.21 56.33 668.75 C 60.57 678.76 65.59 688.83 73.53 696.45 C 78.25 700.22 83.59 704.53 90.02 704.03 C 103.32 703.16 116.53 700.94 129.61 698.49 C 135.37 697.75 141.23 695.32 147.04 696.93 C 153.52 698.76 156.57 707.31 153.15 713.01 C 151.64 715.71 148.81 717.28 145.93 718.13 C 139.04 719.44 132.22 721.11 125.30 722.26 L 125.10 722.53 C 115.33 724.15 105.52 725.58 95.74 727.14 C 103.81 746.45 116.38 764.38 133.89 776.20 C 146.30 784.10 161.46 786.62 175.94 785.21 C 189.91 783.98 203.72 781.42 217.55 779.17 C 221.25 780.70 225.20 779.19 228.99 778.91 C 236.68 778.08 244.38 777.26 251.97 775.72 C 259.98 775.00 267.73 772.32 275.82 772.45 C 280.20 771.99 284.26 769.99 288.65 769.55 C 297.95 767.76 307.41 766.92 316.60 764.57 C 324.64 762.61 332.87 761.60 340.90 759.58 C 340.40 759.29 339.39 758.72 338.89 758.43 C 343.54 757.44 348.24 756.67 352.83 755.44 C 346.35 747.83 339.96 740.14 333.35 732.63 C 328.04 726.91 323.38 720.59 317.77 715.15 C 316.29 714.97 314.83 715.36 313.39 715.62 C 278.83 722.66 243.85 728.42 208.51 729.18 C 203.79 729.05 197.89 730.83 194.28 726.80 C 189.01 721.89 190.84 710.90 198.44 709.54 C 208.59 708.16 218.84 707.59 229.04 706.74 C 252.77 704.70 276.35 701.09 299.75 696.71 C 288.86 685.12 277.33 674.06 265.36 663.57 C 263.14 661.82 261.35 658.05 257.99 659.19 C 225.38 665.28 192.05 664.23 159.05 663.15 C 155.13 663.25 150.84 661.20 149.84 657.13 C 148.32 651.98 150.76 644.24 156.99 643.98 C 168.61 642.70 180.32 643.24 191.99 643.14 C 207.28 643.27 222.57 642.41 237.76 640.75 C 230.58 634.39 223.13 628.31 215.48 622.53 C 214.22 621.38 212.54 621.16 210.92 621.48 C 196.65 623.19 182.29 623.91 167.95 624.81 M 912.80 680.18 L 912.61 680.39 C 902.71 680.20 892.82 680.75 882.93 681.04 C 855.85 682.39 828.71 683.17 801.65 684.16 C 795.12 683.61 788.57 684.06 782.04 683.96 C 768.18 684.22 754.30 683.64 740.46 684.21 C 736.64 683.77 732.76 683.74 728.94 684.03 C 723.43 689.59 717.94 695.27 712.90 701.27 C 702.66 711.98 693.41 723.64 683.71 734.85 C 686.22 734.95 688.75 735.08 691.28 735.14 C 690.19 735.52 689.13 735.95 688.09 736.44 C 696.72 739.40 705.98 736.80 714.83 738.29 C 722.16 739.65 729.70 738.33 737.01 740.00 C 744.80 741.64 752.80 740.11 760.63 741.42 C 766.59 742.27 772.64 741.59 778.60 742.47 C 789.30 743.98 800.13 742.07 810.85 743.33 C 815.52 743.91 820.24 744.16 824.95 743.95 C 826.83 743.77 829.05 744.12 830.44 742.47 C 836.71 742.62 842.97 743.14 849.25 743.01 C 854.06 743.90 858.95 744.04 863.83 744.16 C 877.55 745.01 891.30 745.95 905.05 745.58 C 914.05 745.39 923.41 743.25 930.51 737.44 C 940.00 728.73 948.18 718.52 954.03 707.02 C 958.36 698.38 962.70 689.69 965.74 680.50 C 948.09 680.23 930.45 680.27 912.80 680.18 M 644.19 787.11 C 643.42 788.50 641.84 789.78 642.17 791.52 C 652.54 794.05 662.94 796.59 673.13 799.81 C 677.47 801.20 682.50 803.46 683.41 808.48 C 685.22 814.25 680.53 820.11 674.98 821.28 C 671.98 821.92 668.92 821.23 666.01 820.52 C 653.10 816.74 640.06 813.39 626.95 810.37 C 623.49 814.88 620.71 819.85 617.26 824.37 L 616.93 824.22 C 605.96 839.38 596.73 855.71 586.93 871.64 C 585.28 874.50 583.60 877.35 581.74 880.10 C 578.82 884.53 576.48 889.30 574.06 894.01 C 570.29 901.86 565.54 909.31 562.86 917.63 C 568.60 917.78 574.40 917.83 580.07 916.76 C 592.14 914.63 603.17 909.02 614.12 903.76 C 609.87 900.66 605.48 897.74 600.97 895.04 C 595.49 891.65 589.25 889.05 585.42 883.61 C 585.18 879.77 586.47 876.19 588.23 872.86 C 590.15 871.74 591.58 869.70 593.82 869.22 C 598.33 869.01 602.74 870.44 606.88 872.12 C 618.04 876.93 628.41 883.50 637.67 891.35 C 640.83 893.89 643.95 896.99 648.18 897.48 C 656.05 898.63 664.09 898.22 671.95 897.12 C 682.29 895.46 692.70 893.26 702.38 889.16 C 701.10 886.56 699.70 883.88 699.63 880.92 C 698.97 874.85 705.04 869.13 711.06 870.22 C 720.99 871.68 730.45 878.38 740.75 875.47 C 754.98 873.13 770.01 868.18 779.72 856.97 C 754.52 852.22 729.50 846.49 704.58 840.43 L 704.58 840.33 C 702.09 839.36 699.41 838.51 697.48 836.58 C 695.63 834.90 695.19 832.32 693.94 830.27 C 694.78 825.76 696.57 820.75 701.09 818.76 C 705.36 817.84 709.74 818.86 714.03 819.14 L 713.81 819.36 C 721.76 820.99 729.64 822.94 737.61 824.49 L 737.68 824.76 C 752.39 827.62 767.05 830.76 781.83 833.32 C 789.81 834.29 797.99 836.04 805.98 834.11 C 819.54 831.43 832.33 823.61 839.91 811.95 C 839.93 807.98 838.75 803.92 840.01 800.03 C 840.79 796.23 844.33 793.69 848.00 793.05 C 855.76 791.43 863.79 790.51 871.09 787.21 C 876.85 784.59 882.49 781.53 887.23 777.29 C 890.19 774.60 893.47 772.04 895.23 768.35 C 867.19 767.68 839.13 764.96 811.14 764.61 C 799.83 763.40 788.43 763.16 777.08 762.29 C 741.01 759.89 704.94 757.57 668.83 755.79 C 659.94 765.67 651.96 776.35 644.19 787.11 M 307.06 786.90 C 292.14 789.77 277.11 791.98 262.20 794.85 C 256.77 795.15 251.39 796.61 245.96 797.24 C 225.40 800.73 204.78 804.00 184.26 807.58 C 180.64 808.15 176.92 808.10 173.39 809.18 C 174.41 810.09 175.45 811.05 176.49 811.97 C 187.79 822.02 201.94 829.13 216.90 831.59 C 223.71 832.96 230.56 830.18 237.33 831.47 C 242.84 832.55 245.15 838.95 244.41 843.95 C 243.91 846.92 241.08 848.53 239.37 850.77 C 236.43 852.12 233.36 853.18 230.25 854.09 C 232.19 856.32 234.23 858.54 236.70 860.30 C 247.66 868.72 260.81 874.24 274.59 875.67 L 274.61 875.90 C 278.26 875.95 282.00 876.41 285.58 875.48 C 289.51 874.07 292.79 871.40 296.33 869.27 C 306.98 862.47 318.67 857.60 330.07 852.26 C 335.62 850.09 341.52 846.73 347.66 848.38 C 353.63 849.99 356.54 857.20 354.59 862.80 C 353.45 866.05 350.22 867.84 347.38 869.43 C 337.66 874.36 327.84 879.33 319.18 886.02 C 328.14 890.99 338.17 893.67 348.20 895.45 C 355.07 896.68 362.07 897.68 369.06 897.14 C 371.47 897.12 372.93 894.97 374.53 893.49 C 378.69 888.92 383.93 885.57 388.78 881.81 C 393.24 878.49 398.26 875.13 404.02 875.01 C 411.12 875.33 416.28 883.35 413.94 890.00 C 412.41 895.37 407.34 898.27 403.06 901.25 C 409.94 905.09 417.05 908.53 424.26 911.70 C 434.41 916.07 445.65 916.88 456.57 916.49 C 455.44 913.10 453.89 909.89 452.27 906.72 C 447.31 897.37 442.75 887.81 437.53 878.59 C 427.53 861.33 417.76 843.89 406.37 827.49 C 403.14 823.29 400.27 818.83 397.44 814.36 C 389.02 816.64 380.64 819.02 372.20 821.22 C 367.98 822.19 363.76 823.97 359.35 823.54 C 353.84 822.15 349.61 816.00 351.44 810.34 C 352.81 806.22 356.98 804.04 360.84 802.71 C 368.15 800.22 375.60 798.12 383.13 796.37 C 379.24 788.42 372.91 782.03 368.05 774.69 C 347.70 778.63 327.46 783.19 307.06 786.90 Z" />
</g>
<g id="#fdfcefff">
<path fill="#fdfcef" opacity="1.00" d=" M 524.88 30.62 C 535.76 26.77 547.86 25.80 559.02 29.06 C 574.22 33.54 587.07 45.50 592.33 60.48 C 597.79 76.02 597.06 93.15 592.74 108.87 C 590.10 118.67 585.20 127.85 584.13 138.05 C 583.56 137.29 582.98 136.54 582.40 135.79 C 574.23 140.24 568.50 147.84 563.26 155.29 C 555.46 165.87 549.74 177.82 545.24 190.12 C 542.33 198.30 542.00 207.24 543.75 215.72 C 555.39 211.91 564.30 202.98 571.40 193.34 C 579.52 182.81 585.94 171.12 592.73 159.72 C 595.03 155.48 597.99 151.48 599.19 146.74 L 599.54 145.48 C 604.96 139.15 609.19 131.90 614.57 125.53 C 625.53 111.95 641.55 102.20 658.95 99.89 C 671.47 97.98 684.63 100.29 695.78 106.31 C 705.89 112.29 714.81 121.36 718.09 132.91 C 722.12 145.90 718.84 160.24 711.42 171.38 C 709.21 175.12 705.84 178.52 705.54 183.07 C 705.18 186.21 707.88 189.28 711.04 189.37 C 718.37 189.79 725.83 189.35 733.03 191.11 C 743.96 193.86 754.61 199.31 761.79 208.22 C 768.93 216.27 772.25 227.28 771.54 237.96 C 771.05 252.85 763.36 266.61 753.18 277.12 C 742.56 287.71 729.04 295.26 714.66 299.38 L 713.75 299.11 C 711.58 298.44 709.31 298.15 707.05 298.18 C 697.65 298.30 688.26 297.97 678.87 297.62 C 662.28 296.50 645.64 296.95 629.02 296.91 C 613.86 297.37 598.57 297.52 583.66 300.52 C 581.60 300.72 580.05 302.02 578.82 303.57 C 587.12 309.71 597.01 313.05 606.70 316.29 C 630.75 323.71 655.67 328.72 680.84 329.91 C 689.62 334.89 697.91 340.82 705.67 347.29 C 716.67 356.72 726.61 368.55 729.96 382.97 C 734.01 398.44 730.94 416.13 720.39 428.42 C 712.96 437.03 703.10 443.95 691.84 446.31 C 677.35 449.63 661.99 447.24 648.42 441.52 C 645.51 440.44 642.27 439.05 639.16 440.06 C 635.64 442.60 635.46 447.29 636.56 451.12 C 640.10 464.86 639.41 480.05 632.81 492.78 C 628.78 500.33 622.71 506.67 615.85 511.72 C 602.67 520.71 585.43 521.85 570.39 517.49 C 559.08 514.27 549.44 506.98 541.12 498.90 C 531.36 488.30 522.62 476.09 518.84 462.01 C 518.40 456.94 517.75 451.89 516.90 446.88 C 515.76 436.51 513.82 426.25 512.33 415.93 C 510.41 404.67 508.87 393.28 505.75 382.27 C 503.90 376.68 502.29 370.73 498.21 366.28 C 495.23 371.94 492.35 377.73 490.85 383.99 C 488.06 393.76 487.76 403.98 487.21 414.07 C 487.02 423.46 487.04 432.86 487.55 442.25 C 487.77 453.48 488.40 464.75 487.44 475.97 C 486.72 485.63 485.45 495.24 484.54 504.89 C 484.27 508.01 484.28 511.15 484.42 514.28 C 477.47 524.49 468.22 533.05 457.93 539.82 C 448.36 545.55 437.24 548.89 426.03 548.34 C 412.24 548.12 398.90 541.51 389.76 531.30 C 376.15 516.66 370.90 495.65 372.90 476.06 C 373.27 469.99 375.12 464.10 375.21 458.02 C 375.31 455.17 371.82 453.28 369.36 454.51 C 365.08 456.36 361.15 458.91 357.03 461.05 C 346.08 467.26 333.60 470.89 321.00 471.05 C 308.46 470.79 295.52 466.39 286.90 456.99 C 276.20 446.18 271.44 429.98 274.22 415.07 C 277.31 397.67 287.98 382.44 301.02 370.90 C 307.23 365.66 313.50 360.30 320.86 356.73 C 330.53 356.91 339.60 353.00 348.41 349.47 C 357.24 345.36 366.10 341.27 374.77 336.83 C 383.22 331.78 391.95 327.15 400.03 321.52 C 403.66 318.89 407.49 316.54 411.01 313.77 C 401.86 314.83 392.66 315.06 383.48 315.69 C 367.95 317.34 352.70 321.10 337.87 325.91 C 331.09 327.77 324.60 330.49 318.26 333.48 C 316.09 334.53 314.01 335.72 311.86 336.78 C 308.75 338.24 305.28 338.59 301.96 339.28 C 284.58 342.52 266.09 342.99 249.29 336.75 C 238.40 332.32 228.37 324.91 222.26 314.72 C 213.28 300.52 213.21 281.62 220.84 266.83 C 227.11 254.24 238.85 244.94 251.93 240.15 C 256.28 238.50 260.95 237.87 265.29 236.16 C 268.56 234.84 271.17 231.52 270.92 227.88 C 270.19 224.02 266.70 221.64 264.30 218.81 C 256.40 210.79 250.32 200.46 249.28 189.09 C 247.95 175.62 254.12 161.95 264.52 153.45 C 276.25 142.83 292.77 139.59 308.16 139.93 C 326.57 140.86 345.00 146.91 359.59 158.35 C 364.59 162.04 368.57 166.91 373.63 170.54 C 376.30 176.16 381.04 180.34 385.17 184.85 C 398.04 197.35 410.30 210.83 425.59 220.45 C 428.59 222.50 432.12 223.51 435.71 223.88 C 435.44 217.43 435.66 210.79 433.49 204.61 C 430.52 195.76 424.91 188.13 419.08 180.96 C 415.31 176.58 411.48 172.15 406.82 168.70 C 401.94 164.62 396.81 160.74 391.07 157.95 C 390.10 157.48 389.13 157.02 388.16 156.56 L 387.69 156.34 C 383.26 146.61 378.01 137.20 374.89 126.92 C 369.45 110.24 368.45 91.69 374.47 75.02 C 379.34 63.11 388.02 52.37 399.74 46.68 C 410.54 40.85 423.51 39.56 435.39 42.37 C 446.94 45.18 456.85 52.82 463.66 62.43 C 467.69 67.58 469.94 73.88 474.11 78.93 C 477.02 82.77 483.36 81.61 485.76 77.78 C 488.33 73.64 489.45 68.81 491.47 64.40 C 497.81 49.50 509.62 36.54 524.88 30.62 M 476.54 153.04 C 476.36 158.08 477.41 163.05 477.91 168.04 C 478.68 173.67 478.91 179.40 480.37 184.92 C 480.61 184.90 481.08 184.86 481.31 184.85 C 481.04 190.85 481.34 196.89 482.38 202.82 C 483.56 209.73 483.94 216.74 485.02 223.67 C 484.79 225.41 484.59 227.16 484.37 228.90 C 484.55 226.58 484.80 224.25 484.51 221.93 C 483.56 214.98 483.44 207.89 481.69 201.07 C 480.94 198.41 480.58 195.67 480.42 192.93 C 477.12 190.53 473.89 187.79 469.92 186.62 C 465.39 185.52 460.49 186.22 456.34 188.31 C 447.28 192.32 441.99 202.24 441.60 211.88 C 440.34 221.20 443.17 230.25 444.79 239.30 C 436.71 232.06 426.52 225.04 415.10 226.67 C 402.76 227.68 392.44 241.06 396.44 253.22 C 397.15 255.16 398.09 257.00 398.93 258.89 L 400.68 258.53 L 399.58 259.22 C 399.01 259.22 397.86 259.22 397.29 259.22 C 396.32 258.42 395.25 257.81 394.10 257.38 C 373.62 252.05 352.69 248.83 332.05 244.27 C 329.12 243.87 325.97 242.92 323.11 244.11 C 319.29 245.99 319.16 252.04 322.54 254.44 C 325.29 256.45 328.80 256.84 332.05 257.51 C 346.43 259.87 360.75 262.60 375.08 265.24 C 380.88 266.45 386.73 267.48 392.66 267.80 L 392.89 266.42 C 395.12 267.62 397.60 268.17 400.07 268.64 C 397.99 268.25 395.85 268.02 393.75 268.38 C 386.72 275.33 385.51 287.10 390.52 295.55 C 393.46 301.09 399.53 303.79 405.09 305.95 C 411.97 307.77 419.19 307.23 426.24 307.34 C 419.22 313.64 411.19 320.20 409.10 329.89 C 405.97 343.44 415.89 359.02 430.07 360.19 C 431.47 360.98 433.21 361.02 434.94 361.29 C 433.68 363.25 432.68 365.36 431.72 367.49 L 431.20 367.27 C 426.15 374.56 421.01 381.79 416.31 389.32 C 414.89 391.64 413.30 394.10 413.28 396.91 C 413.77 401.13 420.23 403.40 422.94 399.96 C 428.25 394.02 431.72 386.76 436.22 380.25 C 438.31 377.22 440.33 374.01 440.91 370.31 C 442.21 368.21 443.84 366.35 445.26 364.33 C 445.67 366.30 446.10 368.28 446.52 370.26 C 448.49 373.49 450.91 376.68 454.44 378.32 C 468.60 384.64 487.79 377.69 492.83 362.55 C 495.80 358.11 495.72 352.50 497.81 347.67 C 499.67 349.98 500.27 352.96 501.49 355.61 C 504.92 363.13 509.50 370.82 517.15 374.66 C 522.39 377.66 528.67 378.36 534.56 377.37 C 543.61 375.47 551.50 368.51 553.87 359.46 L 554.96 360.62 C 556.94 365.73 561.17 369.36 564.56 373.50 C 570.35 380.08 575.28 387.36 581.17 393.85 C 583.90 397.26 589.00 394.90 591.00 391.88 C 592.79 388.32 590.24 384.65 588.03 381.97 C 581.76 374.58 575.43 367.23 568.68 360.29 C 566.91 358.44 564.89 356.86 562.79 355.42 C 561.95 354.25 561.17 353.06 560.30 351.93 C 560.90 352.20 562.12 352.73 562.73 352.99 C 568.77 351.67 574.56 348.55 578.87 344.14 C 585.38 337.08 586.38 325.66 581.50 317.41 C 577.88 309.56 570.32 304.88 564.75 298.62 C 568.28 297.60 571.89 296.85 575.53 296.34 C 586.33 294.41 596.68 287.23 600.30 276.57 C 601.19 271.31 601.00 265.61 598.07 260.98 C 596.32 257.10 592.51 252.84 587.91 253.67 C 589.04 253.17 590.16 252.65 591.28 252.09 C 591.04 251.53 590.56 250.40 590.32 249.84 C 590.68 250.37 591.39 251.45 591.75 251.98 C 606.73 247.38 621.44 241.94 635.96 236.05 C 643.44 233.00 651.33 230.59 658.12 226.10 C 661.39 224.21 660.79 219.18 657.66 217.50 C 654.16 215.32 650.20 217.43 646.79 218.67 C 626.80 226.98 606.40 234.29 586.53 242.88 C 586.45 243.92 586.38 244.98 586.31 246.03 C 585.42 245.92 583.65 245.69 582.76 245.58 C 583.62 245.21 584.48 244.82 585.35 244.42 C 586.79 241.45 588.71 238.49 588.59 235.06 C 588.98 228.17 584.81 221.78 579.35 217.92 C 572.77 213.87 564.25 213.14 557.07 216.00 C 549.81 218.84 544.37 224.53 538.90 229.83 C 539.55 225.24 539.62 220.60 539.60 215.97 C 539.65 207.98 539.26 199.32 534.25 192.67 C 529.68 185.65 521.29 181.68 513.04 181.67 C 506.66 182.49 499.88 184.44 495.46 189.43 C 494.23 190.87 492.24 192.13 492.32 194.26 C 491.90 190.61 491.21 186.99 490.72 183.34 C 491.41 175.55 489.97 167.81 489.29 160.07 C 488.84 156.64 488.72 153.00 486.99 149.92 C 484.17 146.02 476.75 148.25 476.54 153.04 Z" />
</g>
<g id="#aad5b9ff">
<path fill="#aad5b9" opacity="1.00" d=" M 582.40 135.79 C 582.98 136.54 583.56 137.29 584.13 138.05 C 585.54 140.26 585.87 143.24 588.19 144.83 C 591.25 147.46 595.57 146.09 599.10 145.47 L 599.19 146.74 C 597.99 151.48 595.03 155.48 592.73 159.72 C 585.94 171.12 579.52 182.81 571.40 193.34 C 564.30 202.98 555.39 211.91 543.75 215.72 C 542.00 207.24 542.33 198.30 545.24 190.12 C 549.74 177.82 555.46 165.87 563.26 155.29 C 568.50 147.84 574.23 140.24 582.40 135.79 Z" />
</g>
<g id="#9ad0b3ff">
<path fill="#9ad0b3" opacity="1.00" d=" M 476.54 153.04 C 476.75 148.25 484.17 146.02 486.99 149.92 C 488.72 153.00 488.84 156.64 489.29 160.07 C 489.97 167.81 491.41 175.55 490.72 183.34 C 487.45 182.63 484.25 183.37 481.31 184.85 C 481.08 184.86 480.61 184.90 480.37 184.92 C 478.91 179.40 478.68 173.67 477.91 168.04 C 477.41 163.05 476.36 158.08 476.54 153.04 Z" />
</g>
<g id="#a7d5b9ff">
<path fill="#a7d5b9" opacity="1.00" d=" M 388.16 156.56 C 389.13 157.02 390.10 157.48 391.07 157.95 L 389.47 158.05 C 393.24 161.59 397.65 164.35 401.95 167.18 C 403.37 168.21 405.16 168.31 406.82 168.70 C 411.48 172.15 415.31 176.58 419.08 180.96 C 424.91 188.13 430.52 195.76 433.49 204.61 C 435.66 210.79 435.44 217.43 435.71 223.88 C 432.12 223.51 428.59 222.50 425.59 220.45 C 410.30 210.83 398.04 197.35 385.17 184.85 C 381.04 180.34 376.30 176.16 373.63 170.54 C 377.70 171.18 382.51 171.67 385.98 168.97 C 389.13 165.71 388.14 160.67 388.16 156.56 Z" />
</g>
<g id="#96bca1ff">
<path fill="#96bca1" opacity="1.00" d=" M 389.47 158.05 L 391.07 157.95 C 396.81 160.74 401.94 164.62 406.82 168.70 C 405.16 168.31 403.37 168.21 401.95 167.18 C 397.65 164.35 393.24 161.59 389.47 158.05 Z" />
</g>
<g id="#f4c429ff">
<path fill="#f4c429" opacity="1.00" d=" M 495.46 189.43 C 499.88 184.44 506.66 182.49 513.04 181.67 C 521.29 181.68 529.68 185.65 534.25 192.67 C 539.26 199.32 539.65 207.98 539.60 215.97 C 539.62 220.60 539.55 225.24 538.90 229.83 C 544.37 224.53 549.81 218.84 557.07 216.00 C 564.25 213.14 572.77 213.87 579.35 217.92 C 584.81 221.78 588.98 228.17 588.59 235.06 C 588.71 238.49 586.79 241.45 585.35 244.42 C 584.48 244.82 583.62 245.21 582.76 245.58 C 572.94 249.27 562.94 252.72 553.76 257.85 C 550.60 259.19 549.40 263.76 552.04 266.18 C 557.44 267.13 562.31 263.97 567.16 262.15 C 573.96 259.04 580.91 256.31 587.91 253.67 C 592.51 252.84 596.32 257.10 598.07 260.98 C 601.00 265.61 601.19 271.31 600.30 276.57 C 596.68 287.23 586.33 294.41 575.53 296.34 C 571.89 296.85 568.28 297.60 564.75 298.62 C 570.32 304.88 577.88 309.56 581.50 317.41 C 586.38 325.66 585.38 337.08 578.87 344.14 C 578.51 342.56 578.11 340.99 577.71 339.43 C 578.45 338.85 579.20 338.29 579.95 337.73 C 580.66 333.54 583.17 329.46 581.87 325.14 C 580.81 321.53 578.93 318.24 577.41 314.83 C 575.66 310.02 570.14 308.70 565.95 306.83 C 566.73 311.42 571.59 313.59 573.05 317.86 C 574.34 321.77 575.48 325.81 575.73 329.94 C 574.10 334.90 569.21 337.35 564.88 339.55 C 566.58 340.64 568.29 341.74 570.01 342.83 C 568.27 345.90 565.51 348.06 562.24 349.30 C 562.40 350.53 562.56 351.76 562.73 352.99 C 562.12 352.73 560.90 352.20 560.30 351.93 C 556.39 346.96 551.98 342.41 548.06 337.44 C 546.31 334.05 544.80 330.50 542.63 327.34 C 540.20 323.84 536.03 321.72 531.81 321.56 C 529.45 322.37 527.80 324.51 525.93 326.08 C 528.22 330.48 530.35 335.59 535.37 337.46 C 541.98 344.42 547.29 352.49 553.87 359.46 C 551.50 368.51 543.61 375.47 534.56 377.37 C 528.67 378.36 522.39 377.66 517.15 374.66 C 509.50 370.82 504.92 363.13 501.49 355.61 C 500.27 352.96 499.67 349.98 497.81 347.67 C 495.72 352.50 495.80 358.11 492.83 362.55 C 491.85 356.88 494.71 350.50 491.34 345.41 C 488.37 348.36 483.83 351.72 485.22 356.50 C 484.23 358.46 483.19 360.40 482.07 362.28 C 479.48 363.46 477.31 365.28 475.54 367.49 C 472.01 366.92 468.02 364.10 464.83 366.97 C 467.32 371.50 472.05 373.44 476.70 375.00 C 473.06 376.74 469.00 377.76 464.96 377.10 C 457.86 376.10 455.05 366.71 447.48 367.07 C 447.24 367.87 446.76 369.46 446.52 370.26 C 446.10 368.28 445.67 366.30 445.26 364.33 C 451.13 354.40 457.83 344.97 463.62 334.98 C 464.17 333.16 464.75 331.27 464.58 329.35 C 463.64 327.97 462.23 327.02 460.92 326.05 C 460.40 325.00 459.89 323.94 459.38 322.90 C 454.62 323.74 452.53 328.42 450.16 332.07 C 447.46 336.88 444.15 341.34 441.66 346.27 C 439.88 349.75 436.69 352.18 434.44 355.32 C 433.08 357.03 432.18 359.28 430.07 360.19 C 415.89 359.02 405.97 343.44 409.10 329.89 C 411.19 320.20 419.22 313.64 426.24 307.34 C 419.19 307.23 411.97 307.77 405.09 305.95 C 399.53 303.79 393.46 301.09 390.52 295.55 C 385.51 287.10 386.72 275.33 393.75 268.38 C 395.85 268.02 397.99 268.25 400.07 268.64 C 410.09 270.56 419.80 273.83 429.85 275.60 C 432.06 275.99 434.32 275.83 436.55 275.70 C 436.66 273.65 438.36 271.13 436.49 269.48 C 433.18 266.41 428.47 265.78 424.24 264.80 C 415.99 263.08 407.82 261.00 399.58 259.22 L 400.68 258.53 C 401.91 258.22 403.16 257.95 404.41 257.67 C 401.68 252.67 399.93 247.24 398.27 241.81 C 397.07 245.49 396.40 249.34 396.44 253.22 C 392.44 241.06 402.76 227.68 415.10 226.67 C 426.52 225.04 436.71 232.06 444.79 239.30 C 443.17 230.25 440.34 221.20 441.60 211.88 C 441.99 202.24 447.28 192.32 456.34 188.31 C 460.49 186.22 465.39 185.52 469.92 186.62 C 473.89 187.79 477.12 190.53 480.42 192.93 C 480.58 195.67 480.94 198.41 481.69 201.07 C 483.44 207.89 483.56 214.98 484.51 221.93 C 484.80 224.25 484.55 226.58 484.37 228.90 C 484.59 227.16 484.79 225.41 485.02 223.67 C 485.83 229.07 486.44 234.60 488.72 239.64 C 490.89 239.26 493.25 239.34 495.23 238.26 C 496.85 236.64 496.15 234.11 496.14 232.08 C 494.77 219.48 493.60 206.87 492.32 194.26 C 492.24 192.13 494.23 190.87 495.46 189.43 M 471.77 270.82 C 466.91 276.73 465.42 284.70 465.70 292.18 L 464.92 290.85 C 464.40 292.74 464.08 294.76 464.68 296.68 C 466.28 304.09 471.78 309.86 477.39 314.59 C 482.47 317.55 487.67 321.71 493.93 320.82 C 496.50 320.55 499.95 321.13 501.37 318.40 C 513.56 315.68 524.61 305.81 526.25 293.07 C 528.48 278.86 518.92 263.97 505.06 260.10 C 493.19 256.88 479.42 261.07 471.77 270.82 Z" />
</g>
<g id="#05271dff">
<path fill="#05271d" opacity="1.00" d=" M 481.31 184.85 C 484.25 183.37 487.45 182.63 490.72 183.34 C 491.21 186.99 491.90 190.61 492.32 194.26 C 493.60 206.87 494.77 219.48 496.14 232.08 C 496.15 234.11 496.85 236.64 495.23 238.26 C 493.25 239.34 490.89 239.26 488.72 239.64 C 486.44 234.60 485.83 229.07 485.02 223.67 C 483.94 216.74 483.56 209.73 482.38 202.82 C 481.34 196.89 481.04 190.85 481.31 184.85 Z" />
</g>
<g id="#9fcfb4ff">
<path fill="#9fcfb4" opacity="1.00" d=" M 646.79 218.67 C 650.20 217.43 654.16 215.32 657.66 217.50 C 660.79 219.18 661.39 224.21 658.12 226.10 C 651.33 230.59 643.44 233.00 635.96 236.05 C 621.44 241.94 606.73 247.38 591.75 251.98 C 591.39 251.45 590.68 250.37 590.32 249.84 C 589.37 248.21 587.89 247.01 586.31 246.03 C 586.38 244.98 586.45 243.92 586.53 242.88 C 606.40 234.29 626.80 226.98 646.79 218.67 Z" />
</g>
<g id="#f2c803ff">
<path fill="#f2c803" opacity="1.00" d=" M 396.44 253.22 C 396.40 249.34 397.07 245.49 398.27 241.81 C 399.93 247.24 401.68 252.67 404.41 257.67 C 403.16 257.95 401.91 258.22 400.68 258.53 L 398.93 258.89 C 398.09 257.00 397.15 255.16 396.44 253.22 Z" />
</g>
<g id="#a1cfb2ff">
<path fill="#a1cfb2" opacity="1.00" d=" M 323.11 244.11 C 325.97 242.92 329.12 243.87 332.05 244.27 C 352.69 248.83 373.62 252.05 394.10 257.38 C 395.25 257.81 396.32 258.42 397.29 259.22 C 394.45 260.57 393.05 263.38 392.89 266.42 L 392.66 267.80 C 386.73 267.48 380.88 266.45 375.08 265.24 C 360.75 262.60 346.43 259.87 332.05 257.51 C 328.80 256.84 325.29 256.45 322.54 254.44 C 319.16 252.04 319.29 245.99 323.11 244.11 Z" />
</g>
<g id="#012b19ff">
<path fill="#012b19" opacity="1.00" d=" M 553.76 257.85 C 562.94 252.72 572.94 249.27 582.76 245.58 C 583.65 245.69 585.42 245.92 586.31 246.03 C 587.89 247.01 589.37 248.21 590.32 249.84 C 590.56 250.40 591.04 251.53 591.28 252.09 C 590.16 252.65 589.04 253.17 587.91 253.67 C 580.91 256.31 573.96 259.04 567.16 262.15 C 562.31 263.97 557.44 267.13 552.04 266.18 C 549.40 263.76 550.60 259.19 553.76 257.85 Z" />
</g>
<g id="#02231fff">
<path fill="#02231f" opacity="1.00" d=" M 397.29 259.22 C 397.86 259.22 399.01 259.22 399.58 259.22 C 407.82 261.00 415.99 263.08 424.24 264.80 C 428.47 265.78 433.18 266.41 436.49 269.48 C 438.36 271.13 436.66 273.65 436.55 275.70 C 434.32 275.83 432.06 275.99 429.85 275.60 C 419.80 273.83 410.09 270.56 400.07 268.64 C 397.60 268.17 395.12 267.62 392.89 266.42 C 393.05 263.38 394.45 260.57 397.29 259.22 Z" />
</g>
<g id="#042f2bff">
<path fill="#042f2b" opacity="1.00" d=" M 471.77 270.82 C 479.42 261.07 493.19 256.88 505.06 260.10 C 518.92 263.97 528.48 278.86 526.25 293.07 C 524.61 305.81 513.56 315.68 501.37 318.40 C 491.42 320.03 480.62 316.68 473.83 309.11 C 469.28 304.54 466.79 298.45 465.70 292.18 C 465.42 284.70 466.91 276.73 471.77 270.82 Z" />
</g>
<g id="#f9d04aff">
<path fill="#f9d04a" opacity="1.00" d=" M 464.68 296.68 C 464.08 294.76 464.40 292.74 464.92 290.85 L 465.70 292.18 C 466.79 298.45 469.28 304.54 473.83 309.11 C 480.62 316.68 491.42 320.03 501.37 318.40 C 499.95 321.13 496.50 320.55 493.93 320.82 C 487.67 321.71 482.47 317.55 477.39 314.59 C 471.78 309.86 466.28 304.09 464.68 296.68 Z" />
<path fill="#f9d04a" opacity="1.00" d=" M 525.93 326.08 C 527.80 324.51 529.45 322.37 531.81 321.56 C 536.03 321.72 540.20 323.84 542.63 327.34 C 544.80 330.50 546.31 334.05 548.06 337.44 C 547.34 336.62 546.61 335.83 545.89 335.02 C 542.27 331.17 539.68 326.08 534.95 323.47 C 532.05 322.22 529.87 324.75 528.34 326.82 C 529.63 330.04 531.44 333.02 533.77 335.59 C 534.17 336.06 534.97 336.99 535.37 337.46 C 530.35 335.59 528.22 330.48 525.93 326.08 Z" />
</g>
<g id="#a6d5b8ff">
<path fill="#a6d5b8" opacity="1.00" d=" M 583.66 300.52 C 598.57 297.52 613.86 297.37 629.02 296.91 C 645.64 296.95 662.28 296.50 678.87 297.62 C 688.26 297.97 697.65 298.30 707.05 298.18 C 709.31 298.15 711.58 298.44 713.75 299.11 L 714.61 299.37 C 707.22 301.84 699.69 303.92 692.04 305.44 C 687.67 306.42 683.14 307.01 679.02 308.86 C 674.37 310.68 672.42 316.39 673.36 321.00 C 674.47 324.87 677.76 327.55 680.84 329.91 C 655.67 328.72 630.75 323.71 606.70 316.29 C 597.01 313.05 587.12 309.71 578.82 303.57 C 580.05 302.02 581.60 300.72 583.66 300.52 Z" />
</g>
<g id="#f5c316ff">
<path fill="#f5c316" opacity="1.00" d=" M 565.95 306.83 C 570.14 308.70 575.66 310.02 577.41 314.83 C 578.93 318.24 580.81 321.53 581.87 325.14 C 583.17 329.46 580.66 333.54 579.95 337.73 C 579.20 338.29 578.45 338.85 577.71 339.43 C 578.11 340.99 578.51 342.56 578.87 344.14 C 574.56 348.55 568.77 351.67 562.73 352.99 C 562.56 351.76 562.40 350.53 562.24 349.30 C 565.51 348.06 568.27 345.90 570.01 342.83 C 568.29 341.74 566.58 340.64 564.88 339.55 C 569.21 337.35 574.10 334.90 575.73 329.94 C 575.48 325.81 574.34 321.77 573.05 317.86 C 571.59 313.59 566.73 311.42 565.95 306.83 Z" />
</g>
<g id="#94cda6ff">
<path fill="#94cda6" opacity="1.00" d=" M 383.48 315.69 C 392.66 315.06 401.86 314.83 411.01 313.77 C 407.49 316.54 403.66 318.89 400.03 321.52 C 399.08 320.92 398.18 320.28 397.23 319.68 C 397.61 319.29 398.37 318.50 398.75 318.11 C 385.14 315.88 371.50 319.04 358.32 322.23 C 348.86 324.23 339.70 327.31 330.63 330.59 C 326.60 331.88 322.64 334.19 318.26 333.48 C 324.60 330.49 331.09 327.77 337.87 325.91 C 352.70 321.10 367.95 317.34 383.48 315.69 Z" />
</g>
<g id="#a7d5b8ff">
<path fill="#a7d5b8" opacity="1.00" d=" M 358.32 322.23 C 371.50 319.04 385.14 315.88 398.75 318.11 C 398.37 318.50 397.61 319.29 397.23 319.68 C 398.18 320.28 399.08 320.92 400.03 321.52 C 391.95 327.15 383.22 331.78 374.77 336.83 C 366.10 341.27 357.24 345.36 348.41 349.47 C 339.60 353.00 330.53 356.91 320.86 356.73 C 324.21 353.51 326.07 348.61 324.90 344.01 C 322.61 339.22 317.04 336.56 311.86 336.78 C 314.01 335.72 316.09 334.53 318.26 333.48 C 322.64 334.19 326.60 331.88 330.63 330.59 C 339.70 327.31 348.86 324.23 358.32 322.23 Z" />
</g>
<g id="#eecc40ff">
<path fill="#eecc40" opacity="1.00" d=" M 450.16 332.07 C 452.53 328.42 454.62 323.74 459.38 322.90 C 459.89 323.94 460.40 325.00 460.92 326.05 C 457.26 326.47 455.59 330.00 453.69 332.66 C 447.44 342.21 441.55 351.98 434.94 361.29 C 433.21 361.02 431.47 360.98 430.07 360.19 C 432.18 359.28 433.08 357.03 434.44 355.32 C 436.69 352.18 439.88 349.75 441.66 346.27 C 444.15 341.34 447.46 336.88 450.16 332.07 Z" />
</g>
<g id="#04210bff">
<path fill="#04210b" opacity="1.00" d=" M 528.34 326.82 C 529.87 324.75 532.05 322.22 534.95 323.47 C 539.68 326.08 542.27 331.17 545.89 335.02 C 541.49 333.68 539.12 329.37 535.28 327.10 C 534.38 328.10 533.48 329.09 532.59 330.10 C 532.99 331.93 533.38 333.76 533.77 335.59 C 531.44 333.02 529.63 330.04 528.34 326.82 Z" />
</g>
<g id="#12270eff">
<path fill="#12270e" opacity="1.00" d=" M 453.69 332.66 C 455.59 330.00 457.26 326.47 460.92 326.05 C 462.23 327.02 463.64 327.97 464.58 329.35 C 464.75 331.27 464.17 333.16 463.62 334.98 C 462.31 333.45 461.41 330.90 459.05 330.84 C 448.58 341.84 442.75 356.26 433.50 368.21 C 433.05 368.03 432.17 367.67 431.72 367.49 C 432.68 365.36 433.68 363.25 434.94 361.29 C 441.55 351.98 447.44 342.21 453.69 332.66 Z" />
</g>
<g id="#062b19ff">
<path fill="#062b19" opacity="1.00" d=" M 535.28 327.10 C 539.12 329.37 541.49 333.68 545.89 335.02 C 546.61 335.83 547.34 336.62 548.06 337.44 C 551.98 342.41 556.39 346.96 560.30 351.93 C 561.17 353.06 561.95 354.25 562.79 355.42 C 560.51 357.61 557.87 359.39 554.96 360.62 L 553.87 359.46 C 547.29 352.49 541.98 344.42 535.37 337.46 C 534.97 336.99 534.17 336.06 533.77 335.59 C 533.38 333.76 532.99 331.93 532.59 330.10 C 533.48 329.09 534.38 328.10 535.28 327.10 Z" />
</g>
<g id="#003320ff">
<path fill="#003320" opacity="1.00" d=" M 433.50 368.21 C 442.75 356.26 448.58 341.84 459.05 330.84 C 461.41 330.90 462.31 333.45 463.62 334.98 C 457.83 344.97 451.13 354.40 445.26 364.33 C 443.84 366.35 442.21 368.21 440.91 370.31 C 438.39 369.79 435.89 369.16 433.50 368.21 Z" />
</g>
<g id="#f3c21aff">
<path fill="#f3c21a" opacity="1.00" d=" M 485.22 356.50 C 483.83 351.72 488.37 348.36 491.34 345.41 C 494.71 350.50 491.85 356.88 492.83 362.55 C 487.79 377.69 468.60 384.64 454.44 378.32 C 450.91 376.68 448.49 373.49 446.52 370.26 C 446.76 369.46 447.24 367.87 447.48 367.07 C 455.05 366.71 457.86 376.10 464.96 377.10 C 469.00 377.76 473.06 376.74 476.70 375.00 C 472.05 373.44 467.32 371.50 464.83 366.97 C 468.02 364.10 472.01 366.92 475.54 367.49 C 477.31 365.28 479.48 363.46 482.07 362.28 C 483.19 360.40 484.23 358.46 485.22 356.50 Z" />
</g>
<g id="#9fd3afff">
<path fill="#9fd3af" opacity="1.00" d=" M 554.96 360.62 C 557.87 359.39 560.51 357.61 562.79 355.42 C 564.89 356.86 566.91 358.44 568.68 360.29 C 575.43 367.23 581.76 374.58 588.03 381.97 C 590.24 384.65 592.79 388.32 591.00 391.88 C 589.00 394.90 583.90 397.26 581.17 393.85 C 575.28 387.36 570.35 380.08 564.56 373.50 C 561.17 369.36 556.94 365.73 554.96 360.62 Z" />
</g>
<g id="#99cfb1ff">
<path fill="#99cfb1" opacity="1.00" d=" M 431.20 367.27 L 431.72 367.49 C 432.17 367.67 433.05 368.03 433.50 368.21 C 435.89 369.16 438.39 369.79 440.91 370.31 C 440.33 374.01 438.31 377.22 436.22 380.25 C 431.72 386.76 428.25 394.02 422.94 399.96 C 420.23 403.40 413.77 401.13 413.28 396.91 C 413.30 394.10 414.89 391.64 416.31 389.32 C 421.01 381.79 426.15 374.56 431.20 367.27 Z" />
</g>
<g id="#a6d7baff">
<path fill="#a6d7ba" opacity="1.00" d=" M 498.21 366.28 C 502.29 370.73 503.90 376.68 505.75 382.27 C 508.87 393.28 510.41 404.67 512.33 415.93 C 513.82 426.25 515.76 436.51 516.90 446.88 C 515.36 448.98 514.56 451.44 514.18 454.00 C 512.53 452.14 510.60 450.26 508.01 449.93 C 501.64 448.86 495.45 454.60 495.31 460.90 C 495.24 469.58 498.00 477.94 500.93 486.01 C 496.74 496.11 491.03 505.58 484.42 514.28 C 484.28 511.15 484.27 508.01 484.54 504.89 C 484.79 506.62 485.13 508.35 485.46 510.08 C 487.36 500.80 487.32 491.28 488.94 481.96 C 489.44 468.24 490.47 454.35 488.57 440.71 L 487.55 442.25 C 487.04 432.86 487.02 423.46 487.21 414.07 C 487.76 403.98 488.06 393.76 490.85 383.99 C 492.35 377.73 495.23 371.94 498.21 366.28 Z" />
</g>
<g id="#95cab2ff">
<path fill="#95cab2" opacity="1.00" d=" M 488.57 440.71 C 490.47 454.35 489.44 468.24 488.94 481.96 C 487.32 491.28 487.36 500.80 485.46 510.08 C 485.13 508.35 484.79 506.62 484.54 504.89 C 485.45 495.24 486.72 485.63 487.44 475.97 C 488.40 464.75 487.77 453.48 487.55 442.25 L 488.57 440.71 Z" />
</g>
<g id="#8ccbb0ff">
<path fill="#8ccbb0" opacity="1.00" d=" M 514.18 454.00 C 514.56 451.44 515.36 448.98 516.90 446.88 C 517.75 451.89 518.40 456.94 518.84 462.01 C 517.35 459.30 515.82 456.62 514.18 454.00 Z" />
</g>
<g id="#9cbc44ff">
<path fill="#9cbc44" opacity="1.00" d=" M 929.35 459.41 C 951.49 459.02 974.01 458.85 995.66 464.09 C 995.93 465.36 996.21 466.64 996.51 467.93 C 987.15 471.44 983.79 482.12 975.85 487.57 C 975.68 487.09 975.34 486.11 975.16 485.62 C 975.16 485.04 975.17 483.89 975.17 483.32 C 972.59 481.03 969.79 477.75 965.96 478.10 C 964.44 478.12 962.94 478.23 961.45 478.35 C 961.27 479.94 961.08 481.53 960.92 483.13 C 948.02 490.71 935.10 498.31 922.72 506.73 C 918.25 510.08 912.23 513.63 912.13 519.92 C 911.77 526.33 918.91 531.48 924.90 529.55 C 929.30 528.16 933.06 525.36 936.99 523.03 C 947.78 516.54 958.22 509.49 969.09 503.13 C 972.97 500.98 976.36 497.71 977.31 493.22 C 977.77 491.80 978.25 490.40 978.74 489.00 C 979.36 492.66 979.58 496.37 979.70 500.09 C 982.04 501.59 984.33 503.18 986.44 505.00 C 978.89 505.31 973.77 514.03 976.03 520.93 C 977.10 524.22 980.49 525.71 983.22 527.40 C 978.20 538.04 972.98 548.63 969.06 559.73 C 938.34 559.38 907.60 558.31 876.88 558.90 C 884.82 552.62 894.22 548.48 902.16 542.21 C 907.07 538.44 906.06 530.20 900.99 527.04 C 896.83 523.81 891.08 524.43 886.59 526.58 C 868.93 535.16 853.56 547.55 837.45 558.61 C 838.10 551.65 838.50 544.55 840.92 537.93 C 842.71 532.64 843.73 527.12 845.60 521.86 C 846.94 518.07 847.67 514.12 848.36 510.18 C 849.08 505.60 852.14 501.93 853.66 497.65 C 854.66 494.96 855.04 492.11 855.56 489.31 C 854.85 489.14 853.41 488.80 852.70 488.63 C 854.30 484.06 855.79 479.40 858.13 475.14 C 858.94 473.53 860.86 473.14 862.40 472.53 C 875.24 468.51 888.48 465.90 901.71 463.54 C 897.81 470.97 893.36 478.11 889.65 485.65 C 887.87 489.56 887.16 494.58 889.73 498.32 C 891.98 502.11 897.10 503.89 901.20 502.26 C 907.17 499.28 910.32 493.10 913.66 487.66 C 919.06 478.35 924.58 469.07 929.35 459.41 Z" />
</g>
<g id="#7eab3dff">
<path fill="#7eab3d" opacity="1.00" d=" M 975.85 487.57 C 983.79 482.12 987.15 471.44 996.51 467.93 C 998.17 480.23 998.49 492.67 998.60 505.07 C 994.54 505.07 990.49 505.22 986.44 505.00 C 984.33 503.18 982.04 501.59 979.70 500.09 C 979.58 496.37 979.36 492.66 978.74 489.00 C 978.25 490.40 977.77 491.80 977.31 493.22 C 976.96 491.29 976.52 489.40 975.85 487.57 Z" />
</g>
<g id="#062f2aff">
<path fill="#062f2a" opacity="1.00" d=" M 783.88 474.85 C 790.15 472.64 796.41 470.18 803.01 469.09 C 809.45 467.68 816.86 471.49 818.97 477.86 C 819.00 481.29 818.62 485.43 815.31 487.34 C 809.93 490.73 803.68 492.34 797.80 494.62 C 785.89 499.01 774.19 504.00 763.00 509.99 C 756.33 513.57 749.99 517.71 743.43 521.48 C 740.21 523.18 736.77 524.89 733.05 524.92 C 729.29 524.88 726.92 521.51 724.58 519.07 L 723.48 520.53 C 723.49 520.21 723.50 519.57 723.50 519.25 C 723.67 518.82 724.01 517.95 724.18 517.52 C 723.90 514.18 723.63 510.49 725.53 507.54 C 728.28 503.30 732.57 500.41 736.75 497.72 C 751.46 488.25 767.34 480.57 783.88 474.85 Z" />
</g>
<g id="#9bbc44ff">
<path fill="#9bbc44" opacity="1.00" d=" M 818.97 477.86 C 823.33 474.36 828.37 471.03 833.98 470.13 C 831.82 478.07 829.32 485.91 826.60 493.67 C 818.50 519.91 811.39 546.56 807.77 573.82 C 807.12 577.09 807.33 581.20 804.17 583.24 C 793.14 591.42 783.13 600.86 772.74 609.81 C 759.40 621.78 745.73 633.40 733.22 646.27 C 723.81 656.04 714.16 665.60 704.97 675.59 C 701.45 650.01 702.00 623.95 705.88 598.45 C 706.27 593.95 707.09 589.47 707.09 584.95 C 707.28 581.04 703.85 577.57 700.04 577.30 C 696.63 576.97 692.44 577.18 690.29 580.28 C 687.24 584.64 686.52 590.09 685.42 595.18 C 682.87 606.02 682.38 617.17 681.39 628.22 C 680.68 630.09 679.64 631.93 679.63 633.99 C 679.46 640.07 679.75 646.17 680.38 652.23 C 680.60 651.36 681.03 649.62 681.25 648.76 C 681.82 659.47 682.31 670.20 683.73 680.85 C 684.13 685.58 685.30 690.27 685.17 695.04 C 684.09 697.49 681.94 699.23 680.28 701.28 C 673.72 709.07 667.61 717.24 661.17 725.13 C 656.94 730.47 652.40 735.59 648.82 741.42 C 646.47 734.54 645.06 727.39 643.61 720.29 C 639.71 699.72 637.06 678.93 635.33 658.08 C 634.93 654.20 634.73 649.21 630.70 647.26 C 624.58 643.51 616.15 648.58 615.67 655.48 C 614.50 667.66 615.98 679.90 617.08 692.04 C 619.34 711.75 622.37 731.43 627.72 750.56 C 627.38 754.13 626.88 757.69 626.55 761.28 C 618.88 758.07 610.90 755.70 603.16 752.68 C 598.27 750.90 594.76 746.62 589.70 745.21 C 583.48 743.29 577.86 739.96 572.43 736.43 C 578.31 712.45 585.27 688.56 596.29 666.37 C 605.51 647.68 616.98 630.16 630.03 613.93 C 635.03 609.26 640.39 604.96 646.00 601.02 C 650.65 597.85 652.65 592.41 655.80 587.98 C 658.36 584.22 661.58 580.99 664.73 577.74 C 674.58 567.54 685.16 558.00 696.69 549.74 C 701.26 546.33 706.72 543.91 710.43 539.47 C 713.18 536.06 712.34 531.47 710.84 527.73 C 711.00 527.15 711.31 525.99 711.47 525.41 C 715.04 522.51 719.12 520.14 723.51 518.71 L 723.50 519.25 C 723.50 519.57 723.49 520.21 723.48 520.53 L 724.58 519.07 C 726.92 521.51 729.29 524.88 733.05 524.92 C 736.77 524.89 740.21 523.18 743.43 521.48 C 749.99 517.71 756.33 513.57 763.00 509.99 C 774.19 504.00 785.89 499.01 797.80 494.62 C 803.68 492.34 809.93 490.73 815.31 487.34 C 818.62 485.43 819.00 481.29 818.97 477.86 M 750.52 543.65 C 745.82 544.75 743.29 549.39 742.85 553.89 C 740.97 568.46 740.36 583.26 741.77 597.90 C 742.26 601.49 742.87 605.80 746.29 607.83 C 750.77 610.47 757.11 609.54 760.52 605.54 C 762.42 603.90 762.03 601.21 762.16 598.97 C 761.90 585.99 761.90 572.99 762.35 560.01 C 762.41 556.71 763.06 553.39 762.49 550.12 C 760.94 545.39 755.38 542.14 750.52 543.65 Z" />
</g>
<g id="#9fc358ff">
<path fill="#9fc358" opacity="1.00" d=" M 961.45 478.35 C 962.94 478.23 964.44 478.12 965.96 478.10 C 969.79 477.75 972.59 481.03 975.17 483.32 C 975.17 483.89 975.16 485.04 975.16 485.62 C 971.40 481.85 965.74 480.89 960.92 483.13 C 961.08 481.53 961.27 479.94 961.45 478.35 Z" />
</g>
<g id="#06312bff">
<path fill="#06312b" opacity="1.00" d=" M 960.92 483.13 C 965.74 480.89 971.40 481.85 975.16 485.62 C 975.34 486.11 975.68 487.09 975.85 487.57 C 976.52 489.40 976.96 491.29 977.31 493.22 C 976.36 497.71 972.97 500.98 969.09 503.13 C 958.22 509.49 947.78 516.54 936.99 523.03 C 933.06 525.36 929.30 528.16 924.90 529.55 C 918.91 531.48 911.77 526.33 912.13 519.92 C 912.23 513.63 918.25 510.08 922.72 506.73 C 935.10 498.31 948.02 490.71 960.92 483.13 Z" />
</g>
<g id="#a6c54bff">
<path fill="#a6c54b" opacity="1.00" d=" M 831.55 562.71 C 836.54 537.49 843.89 512.77 852.70 488.63 C 853.41 488.80 854.85 489.14 855.56 489.31 C 855.04 492.11 854.66 494.96 853.66 497.65 C 852.14 501.93 849.08 505.60 848.36 510.18 C 847.67 514.12 846.94 518.07 845.60 521.86 C 843.73 527.12 842.71 532.64 840.92 537.93 C 838.50 544.55 838.10 551.65 837.45 558.61 C 835.56 560.09 833.59 561.47 831.55 562.71 Z" />
</g>
<g id="#9bbc43ff">
<path fill="#9bbc43" opacity="1.00" d=" M 25.79 505.86 C 44.13 500.76 63.01 497.80 81.95 496.08 C 85.91 495.87 89.90 495.14 93.86 495.66 C 98.21 500.94 101.36 507.11 105.38 512.65 C 109.17 517.79 111.97 523.86 117.08 527.89 C 122.87 532.62 132.81 528.08 134.05 521.05 C 133.37 513.30 127.77 507.23 124.23 500.60 C 125.32 499.19 126.41 497.78 127.50 496.38 C 137.68 497.23 147.87 498.07 158.02 499.20 C 159.91 499.15 160.69 501.05 161.61 502.37 C 168.97 515.05 175.72 528.09 183.27 540.66 C 185.43 544.11 187.99 547.86 192.09 549.10 C 197.57 550.37 204.47 546.95 205.25 541.01 C 205.16 536.39 202.94 532.16 200.96 528.09 C 196.63 520.03 192.88 511.68 188.70 503.54 C 211.46 508.82 234.31 514.99 254.94 526.24 C 259.38 528.78 264.51 531.20 269.73 529.70 C 273.91 528.60 276.11 524.40 276.98 520.48 C 281.99 520.93 287.05 521.62 291.81 523.30 C 293.15 523.62 293.71 524.96 294.53 525.93 C 289.50 530.68 289.97 540.32 296.04 544.02 C 302.31 548.11 309.03 551.49 315.15 555.83 C 321.23 560.04 326.91 564.79 332.76 569.32 C 338.19 573.50 342.51 578.93 347.95 583.09 C 352.40 586.46 358.80 584.95 362.78 581.55 C 366.67 582.75 369.30 586.03 372.51 588.35 C 374.14 589.82 376.89 591.44 376.21 594.02 C 373.41 603.39 372.64 613.51 374.58 623.13 C 375.48 627.89 378.64 633.18 384.03 633.39 C 388.45 633.93 392.03 631.00 395.12 628.29 C 398.41 631.90 401.44 635.73 404.36 639.64 C 426.53 670.23 440.40 706.12 448.36 742.87 C 440.47 746.20 433.78 751.74 427.60 757.56 C 424.56 760.30 421.03 762.47 417.33 764.22 C 417.63 754.13 417.24 744.04 417.32 733.95 C 417.46 731.26 416.69 728.69 415.64 726.26 C 414.59 710.06 412.78 693.86 408.98 678.05 C 407.27 671.34 406.22 664.27 402.85 658.14 C 399.49 652.17 389.73 652.67 386.45 658.44 C 384.84 661.01 385.08 664.19 385.39 667.08 C 386.32 674.81 388.23 682.37 389.38 690.06 C 393.26 715.69 395.55 741.76 392.99 767.64 C 379.58 748.41 364.24 730.63 349.26 712.62 C 347.14 709.88 344.22 707.71 342.64 704.60 C 342.27 701.09 342.72 697.55 342.70 694.03 C 342.85 660.57 337.97 627.04 327.73 595.17 C 325.98 590.13 323.21 583.59 316.97 583.42 C 311.08 582.50 305.02 587.93 305.83 593.94 C 306.34 599.54 308.36 604.84 309.71 610.27 C 315.93 634.21 320.33 658.75 320.93 683.53 C 304.28 665.65 286.42 648.93 268.04 632.84 C 265.88 609.25 261.00 586.01 254.76 563.18 C 252.71 556.79 251.23 550.09 247.80 544.26 C 244.28 538.12 233.79 538.40 230.78 544.90 C 228.81 549.56 230.29 554.76 231.39 559.46 C 236.12 577.68 240.73 595.97 243.54 614.61 C 232.77 604.06 220.08 595.79 207.58 587.48 C 191.60 576.88 174.68 567.72 157.13 560.02 C 139.62 552.02 121.05 546.64 103.62 538.48 C 93.34 533.72 82.96 529.18 72.62 524.55 C 67.92 522.57 63.20 520.32 58.05 519.81 C 54.56 519.46 51.05 518.80 47.96 517.06 C 40.62 513.23 33.51 508.92 25.79 505.86 Z" />
</g>
<g id="#99ba6bff">
<path fill="#99ba6b" opacity="1.00" d=" M 121.76 495.87 C 123.67 496.03 125.59 496.20 127.50 496.38 C 126.41 497.78 125.32 499.19 124.23 500.60 C 123.36 499.04 122.56 497.46 121.76 495.87 Z" />
</g>
<g id="#5e983eff">
<path fill="#5e983e" opacity="1.00" d=" M 24.67 510.01 C 24.63 508.52 25.12 507.14 25.79 505.86 C 33.51 508.92 40.62 513.23 47.96 517.06 C 51.05 518.80 54.56 519.46 58.05 519.81 C 51.84 518.44 46.86 525.26 47.89 530.99 C 48.10 536.77 53.18 540.48 58.04 542.53 C 57.44 542.56 56.24 542.61 55.63 542.63 C 55.53 545.46 55.58 548.28 55.64 551.11 C 56.00 551.40 56.72 551.96 57.08 552.24 C 47.14 552.51 37.40 554.85 27.46 555.02 C 25.86 540.07 24.44 525.06 24.67 510.01 Z" />
</g>
<g id="#083029ff">
<path fill="#083029" opacity="1.00" d=" M 294.53 525.93 C 301.14 522.07 309.29 523.96 315.64 527.44 C 330.51 535.66 343.95 546.22 356.55 557.57 C 360.22 561.15 364.03 565.02 365.55 570.05 C 366.37 573.98 365.51 578.51 362.78 581.55 C 358.80 584.95 352.40 586.46 347.95 583.09 C 342.51 578.93 338.19 573.50 332.76 569.32 C 326.91 564.79 321.23 560.04 315.15 555.83 C 309.03 551.49 302.31 548.11 296.04 544.02 C 289.97 540.32 289.50 530.68 294.53 525.93 Z" />
</g>
<g id="#5b9a3cff">
<path fill="#5b9a3c" opacity="1.00" d=" M 983.22 527.40 C 988.56 527.98 993.93 528.18 999.29 528.63 C 998.28 539.42 997.75 550.24 996.91 561.05 C 987.61 560.60 978.31 560.05 968.99 559.92 L 969.06 559.73 C 972.98 548.63 978.20 538.04 983.22 527.40 Z" />
</g>
<g id="#98be54ff">
<path fill="#98be54" opacity="1.00" d=" M 55.63 542.63 C 56.24 542.61 57.44 542.56 58.04 542.53 C 63.98 545.09 69.81 547.89 75.55 550.86 C 72.09 551.05 68.60 550.79 65.37 549.43 C 62.99 552.25 63.40 555.97 63.89 559.36 C 62.13 556.55 59.72 554.22 57.08 552.24 C 56.72 551.96 56.00 551.40 55.64 551.11 C 55.58 548.28 55.53 545.46 55.63 542.63 Z" />
<path fill="#98be54" opacity="1.00" d=" M 173.39 809.18 C 176.92 808.10 180.64 808.15 184.26 807.58 C 181.57 808.85 179.04 810.44 176.49 811.97 C 175.45 811.05 174.41 810.09 173.39 809.18 Z" />
</g>
<g id="#062f28ff">
<path fill="#062f28" opacity="1.00" d=" M 750.52 543.65 C 755.38 542.14 760.94 545.39 762.49 550.12 C 763.06 553.39 762.41 556.71 762.35 560.01 C 761.90 572.99 761.90 585.99 762.16 598.97 C 762.03 601.21 762.42 603.90 760.52 605.54 C 757.11 609.54 750.77 610.47 746.29 607.83 C 742.87 605.80 742.26 601.49 741.77 597.90 C 740.36 583.26 740.97 568.46 742.85 553.89 C 743.29 549.39 745.82 544.75 750.52 543.65 Z" />
</g>
<g id="#9abb43ff">
<path fill="#9abb43" opacity="1.00" d=" M 63.89 559.36 C 63.40 555.97 62.99 552.25 65.37 549.43 C 68.60 550.79 72.09 551.05 75.55 550.86 C 84.33 555.06 93.26 558.94 102.12 562.96 C 119.55 570.78 137.85 576.52 154.98 585.04 C 165.85 590.39 177.00 595.46 186.77 602.71 C 150.91 603.55 115.09 605.70 79.34 608.60 C 76.13 601.54 72.44 594.71 69.30 587.63 C 66.78 582.15 64.56 576.52 61.52 571.30 C 63.41 567.63 64.78 563.52 63.89 559.36 Z" />
<path fill="#9abb43" opacity="1.00" d=" M 811.06 607.63 C 823.09 598.59 834.28 588.33 847.05 580.34 C 858.32 579.82 869.65 580.41 880.95 580.44 C 906.16 580.59 931.37 581.13 956.56 582.11 C 952.92 595.96 948.39 609.57 944.25 623.28 C 942.11 630.59 938.75 637.50 936.92 644.91 C 936.10 649.63 933.34 653.55 930.44 657.23 C 921.39 657.61 912.33 657.72 903.28 658.15 C 887.00 658.81 870.73 659.40 854.45 660.21 C 839.31 660.86 824.19 662.03 809.03 662.12 C 789.27 662.64 769.51 662.56 749.75 662.97 C 760.03 652.84 770.84 643.26 781.45 633.48 C 783.92 630.79 787.66 630.55 791.07 630.28 C 821.45 628.19 851.78 625.31 881.99 621.50 C 888.67 620.39 895.45 619.75 902.00 618.02 C 908.59 615.97 909.90 606.39 905.16 601.84 C 902.68 598.83 898.52 598.85 894.98 599.14 C 881.96 600.24 868.97 601.78 855.97 603.09 C 841.02 604.85 826.01 605.87 811.06 607.63 Z" />
</g>
<g id="#5a9639ff">
<path fill="#5a9639" opacity="1.00" d=" M 40.94 576.62 C 47.88 575.35 55.42 575.24 61.52 571.30 C 64.56 576.52 66.78 582.15 69.30 587.63 C 72.44 594.71 76.13 601.54 79.34 608.60 L 78.75 608.64 C 77.38 607.53 76.10 606.32 74.62 605.37 C 72.25 605.04 69.92 605.89 67.65 606.46 C 65.20 610.67 59.63 609.16 56.77 606.20 C 54.24 606.43 51.73 606.71 49.21 607.00 C 48.41 598.58 49.90 590.02 47.97 581.71 C 46.77 581.67 45.58 581.62 44.38 581.59 C 43.23 579.93 42.09 578.27 40.94 576.62 Z" />
</g>
<g id="#5f9c40ff">
<path fill="#5f9c40" opacity="1.00" d=" M 30.61 578.14 C 34.05 577.63 37.50 577.11 40.94 576.62 C 42.09 578.27 43.23 579.93 44.38 581.59 C 45.58 581.62 46.77 581.67 47.97 581.71 C 49.90 590.02 48.41 598.58 49.21 607.00 C 51.73 606.71 54.24 606.43 56.77 606.20 C 59.63 609.16 65.20 610.67 67.65 606.46 C 69.92 605.89 72.25 605.04 74.62 605.37 C 76.10 606.32 77.38 607.53 78.75 608.64 C 65.52 610.20 52.32 611.98 39.13 613.86 C 35.47 602.18 32.86 590.17 30.61 578.14 Z" />
</g>
<g id="#001f20ff">
<path fill="#001f20" opacity="1.00" d=" M 690.29 580.28 C 692.44 577.18 696.63 576.97 700.04 577.30 C 703.85 577.57 707.28 581.04 707.09 584.95 C 707.09 589.47 706.27 593.95 705.88 598.45 C 705.43 598.06 704.54 597.28 704.09 596.89 C 704.56 592.31 707.10 586.61 703.18 582.87 C 699.06 580.96 693.35 581.80 690.76 585.82 C 688.88 588.88 687.80 592.42 685.42 595.18 C 686.52 590.09 687.24 584.64 690.29 580.28 Z" />
</g>
<g id="#5d983eff">
<path fill="#5d983e" opacity="1.00" d=" M 956.56 582.11 C 968.88 582.90 981.21 583.44 993.53 584.15 C 991.47 598.67 988.10 612.98 984.17 627.09 C 980.90 637.16 977.82 647.28 974.73 657.40 C 959.96 657.51 945.20 657.39 930.44 657.23 C 933.34 653.55 936.10 649.63 936.92 644.91 C 938.75 637.50 942.11 630.59 944.25 623.28 C 948.39 609.57 952.92 595.96 956.56 582.11 Z" />
</g>
<g id="#99bb44ff">
<path fill="#99bb44" opacity="1.00" d=" M 167.95 624.81 C 182.29 623.91 196.65 623.19 210.92 621.48 C 212.54 621.16 214.22 621.38 215.48 622.53 C 223.13 628.31 230.58 634.39 237.76 640.75 C 222.57 642.41 207.28 643.27 191.99 643.14 C 180.32 643.24 168.61 642.70 156.99 643.98 C 150.76 644.24 148.32 651.98 149.84 657.13 C 150.84 661.20 155.13 663.25 159.05 663.15 C 192.05 664.23 225.38 665.28 257.99 659.19 C 261.35 658.05 263.14 661.82 265.36 663.57 C 277.33 674.06 288.86 685.12 299.75 696.71 C 276.35 701.09 252.77 704.70 229.04 706.74 C 218.84 707.59 208.59 708.16 198.44 709.54 C 190.84 710.90 189.01 721.89 194.28 726.80 C 197.89 730.83 203.79 729.05 208.51 729.18 C 243.85 728.42 278.83 722.66 313.39 715.62 C 314.83 715.36 316.29 714.97 317.77 715.15 C 323.38 720.59 328.04 726.91 333.35 732.63 C 339.96 740.14 346.35 747.83 352.83 755.44 C 348.24 756.67 343.54 757.44 338.89 758.43 C 317.33 762.91 295.68 767.04 273.90 770.31 C 258.97 772.87 243.93 774.74 229.01 777.36 C 227.19 777.40 225.25 777.49 223.62 776.54 C 218.27 773.68 213.48 769.92 208.63 766.31 C 196.62 757.26 183.90 749.18 172.13 739.81 C 163.10 732.94 155.10 724.81 145.93 718.13 C 148.81 717.28 151.64 715.71 153.15 713.01 C 156.57 707.31 153.52 698.76 147.04 696.93 C 141.23 695.32 135.37 697.75 129.61 698.49 C 124.97 689.77 117.97 682.66 112.59 674.43 C 105.43 663.28 98.71 651.80 93.41 639.63 C 92.10 636.38 90.31 633.34 88.04 630.67 C 114.64 628.18 141.27 626.11 167.95 624.81 Z" />
</g>
<g id="#a7c361ff">
<path fill="#a7c361" opacity="1.00" d=" M 679.63 633.99 C 679.64 631.93 680.68 630.09 681.39 628.22 C 681.12 635.06 681.09 641.91 681.25 648.76 C 681.03 649.62 680.60 651.36 680.38 652.23 C 679.75 646.17 679.46 640.07 679.63 633.99 Z" />
</g>
<g id="#5b983cff">
<path fill="#5b983c" opacity="1.00" d=" M 45.08 636.37 C 59.40 634.49 73.68 632.26 88.04 630.67 C 90.31 633.34 92.10 636.38 93.41 639.63 C 98.71 651.80 105.43 663.28 112.59 674.43 C 117.97 682.66 124.97 689.77 129.61 698.49 C 116.53 700.94 103.32 703.16 90.02 704.03 C 83.59 704.53 78.25 700.22 73.53 696.45 C 65.59 688.83 60.57 678.76 56.33 668.75 C 51.89 658.21 48.12 647.39 45.08 636.37 Z" />
</g>
<g id="#0c2513ff">
<path fill="#0c2513" opacity="1.00" d=" M 854.45 660.21 C 870.73 659.40 887.00 658.81 903.28 658.15 C 902.97 660.37 900.55 659.99 899.01 660.22 C 892.63 660.44 886.23 659.97 879.89 660.84 C 873.97 661.64 868.00 661.22 862.06 661.42 C 859.50 661.36 856.64 661.81 854.45 660.21 Z" />
</g>
<g id="#59973dff">
<path fill="#59973d" opacity="1.00" d=" M 912.80 680.18 C 930.45 680.27 948.09 680.23 965.74 680.50 C 962.70 689.69 958.36 698.38 954.03 707.02 C 948.18 718.52 940.00 728.73 930.51 737.44 C 923.41 743.25 914.05 745.39 905.05 745.58 C 891.30 745.95 877.55 745.01 863.83 744.16 C 858.95 744.04 854.06 743.90 849.25 743.01 C 852.40 737.73 857.40 734.02 861.65 729.69 C 870.81 721.17 880.67 713.40 889.44 704.45 C 897.49 696.75 904.97 688.49 912.61 680.39 L 912.80 680.18 Z" />
</g>
<g id="#99bb43ff">
<path fill="#99bb43" opacity="1.00" d=" M 801.65 684.16 C 828.71 683.17 855.85 682.39 882.93 681.04 C 892.82 680.75 902.71 680.20 912.61 680.39 C 904.97 688.49 897.49 696.75 889.44 704.45 C 880.67 713.40 870.81 721.17 861.65 729.69 C 857.40 734.02 852.40 737.73 849.25 743.01 C 842.97 743.14 836.71 742.62 830.44 742.47 C 823.87 742.10 817.28 742.24 810.74 741.54 C 803.64 738.15 795.61 739.08 788.01 738.69 C 789.68 738.27 791.35 737.84 793.04 737.43 C 786.68 735.74 780.04 736.71 773.60 735.64 C 769.96 735.10 766.80 732.08 762.97 733.20 C 758.28 734.17 753.49 734.97 748.69 734.27 C 742.25 733.33 735.59 734.72 729.28 732.79 C 723.02 731.06 716.59 729.32 710.03 730.01 C 704.78 730.72 699.50 729.84 694.24 730.40 C 698.15 726.30 699.45 720.45 703.61 716.56 C 708.91 711.19 714.03 705.65 718.82 699.80 C 719.49 698.93 719.69 697.77 719.85 696.71 C 717.51 698.20 715.17 699.68 712.90 701.27 C 717.94 695.27 723.43 689.59 728.94 684.03 C 732.76 683.74 736.64 683.77 740.46 684.21 C 747.55 685.78 754.84 685.06 762.04 685.23 C 772.36 685.36 782.69 685.09 793.01 685.34 C 795.93 685.45 798.81 684.84 801.65 684.16 Z" />
<path fill="#99bb43" opacity="1.00" d=" M 307.06 786.90 C 327.46 783.19 347.70 778.63 368.05 774.69 C 372.91 782.03 379.24 788.42 383.13 796.37 C 375.60 798.12 368.15 800.22 360.84 802.71 C 356.98 804.04 352.81 806.22 351.44 810.34 C 349.61 816.00 353.84 822.15 359.35 823.54 C 363.76 823.97 367.98 822.19 372.20 821.22 C 380.64 819.02 389.02 816.64 397.44 814.36 C 400.27 818.83 403.14 823.29 406.37 827.49 C 397.23 832.32 387.45 836.64 376.96 837.02 C 365.17 837.34 353.20 837.42 341.69 834.43 C 321.95 830.86 304.70 820.06 287.46 810.42 C 278.79 805.63 271.21 799.04 262.20 794.85 C 277.11 791.98 292.14 789.77 307.06 786.90 Z" />
</g>
<g id="#98ac55ff">
<path fill="#98ac55" opacity="1.00" d=" M 740.46 684.21 C 754.30 683.64 768.18 684.22 782.04 683.96 C 788.57 684.06 795.12 683.61 801.65 684.16 C 798.81 684.84 795.93 685.45 793.01 685.34 C 782.69 685.09 772.36 685.36 762.04 685.23 C 754.84 685.06 747.55 685.78 740.46 684.21 Z" />
</g>
<g id="#a0c04aff">
<path fill="#a0c04a" opacity="1.00" d=" M 712.90 701.27 C 715.17 699.68 717.51 698.20 719.85 696.71 C 719.69 697.77 719.49 698.93 718.82 699.80 C 714.03 705.65 708.91 711.19 703.61 716.56 C 699.45 720.45 698.15 726.30 694.24 730.40 C 699.50 729.84 704.78 730.72 710.03 730.01 C 716.59 729.32 723.02 731.06 729.28 732.79 C 735.59 734.72 742.25 733.33 748.69 734.27 C 753.49 734.97 758.28 734.17 762.97 733.20 C 766.80 732.08 769.96 735.10 773.60 735.64 C 780.04 736.71 786.68 735.74 793.04 737.43 C 791.35 737.84 789.68 738.27 788.01 738.69 C 795.61 739.08 803.64 738.15 810.74 741.54 C 770.86 740.54 731.14 736.46 691.28 735.14 C 688.75 735.08 686.22 734.95 683.71 734.85 C 693.41 723.64 702.66 711.98 712.90 701.27 Z" />
</g>
<g id="#5a973dff">
<path fill="#5a973d" opacity="1.00" d=" M 125.30 722.26 C 132.22 721.11 139.04 719.44 145.93 718.13 C 155.10 724.81 163.10 732.94 172.13 739.81 C 183.90 749.18 196.62 757.26 208.63 766.31 C 213.48 769.92 218.27 773.68 223.62 776.54 C 225.25 777.49 227.19 777.40 229.01 777.36 C 225.18 777.92 221.36 778.52 217.55 779.17 C 203.72 781.42 189.91 783.98 175.94 785.21 C 161.46 786.62 146.30 784.10 133.89 776.20 C 134.42 775.75 135.47 774.85 136.00 774.40 C 133.40 770.11 127.40 769.08 125.83 764.08 C 124.26 760.01 120.98 756.78 120.12 752.43 C 119.35 752.14 118.59 751.86 117.83 751.59 C 118.00 745.66 113.90 740.85 112.46 735.31 C 111.97 733.25 110.95 731.39 109.45 729.89 C 113.21 726.13 118.87 726.04 123.67 724.49 C 124.03 724.00 124.74 723.02 125.10 722.53 L 125.30 722.26 Z" />
<path fill="#5a973d" opacity="1.00" d=" M 616.93 824.22 L 617.26 824.37 C 621.18 826.18 625.05 828.12 629.05 829.77 C 639.12 833.92 650.23 834.43 660.99 834.35 C 671.69 834.07 681.88 830.60 692.12 827.85 C 692.73 828.64 693.34 829.44 693.94 830.27 C 695.19 832.32 695.63 834.90 697.48 836.58 C 699.41 838.51 702.09 839.36 704.58 840.33 L 704.58 840.43 C 704.53 840.96 704.43 842.01 704.39 842.54 C 709.79 845.29 716.13 844.68 721.55 847.34 C 726.39 849.59 731.71 850.42 736.98 850.93 C 744.61 851.55 751.89 854.05 759.26 855.92 C 762.16 856.50 764.67 858.22 765.22 861.29 C 764.01 861.68 762.80 862.09 761.61 862.52 C 760.67 864.55 760.91 868.34 757.92 868.40 C 751.55 868.83 745.96 872.05 740.75 875.47 C 730.45 878.38 720.99 871.68 711.06 870.22 C 705.04 869.13 698.97 874.85 699.63 880.92 C 699.70 883.88 701.10 886.56 702.38 889.16 C 692.70 893.26 682.29 895.46 671.95 897.12 C 664.09 898.22 656.05 898.63 648.18 897.48 C 643.95 896.99 640.83 893.89 637.67 891.35 C 628.41 883.50 618.04 876.93 606.88 872.12 C 602.74 870.44 598.33 869.01 593.82 869.22 C 591.58 869.70 590.15 871.74 588.23 872.86 C 587.91 872.55 587.26 871.94 586.93 871.64 C 596.73 855.71 605.96 839.38 616.93 824.22 Z" />
</g>
<g id="#5f9d48ff">
<path fill="#5f9d48" opacity="1.00" d=" M 95.74 727.14 C 105.52 725.58 115.33 724.15 125.10 722.53 C 124.74 723.02 124.03 724.00 123.67 724.49 C 118.87 726.04 113.21 726.13 109.45 729.89 C 110.95 731.39 111.97 733.25 112.46 735.31 C 113.90 740.85 118.00 745.66 117.83 751.59 C 118.59 751.86 119.35 752.14 120.12 752.43 C 120.98 756.78 124.26 760.01 125.83 764.08 C 127.40 769.08 133.40 770.11 136.00 774.40 C 135.47 774.85 134.42 775.75 133.89 776.20 C 116.38 764.38 103.81 746.45 95.74 727.14 Z" />
</g>
<g id="#a0c960ff">
<path fill="#a0c960" opacity="1.00" d=" M 415.64 726.26 C 416.69 728.69 417.46 731.26 417.32 733.95 C 417.24 744.04 417.63 754.13 417.33 764.22 C 416.83 763.98 415.81 763.49 415.31 763.25 C 416.42 750.95 415.92 738.59 415.64 726.26 Z" />
</g>
<g id="#042518ff">
<path fill="#042518" opacity="1.00" d=" M 691.28 735.14 C 731.14 736.46 770.86 740.54 810.74 741.54 C 817.28 742.24 823.87 742.10 830.44 742.47 C 829.05 744.12 826.83 743.77 824.95 743.95 C 820.24 744.16 815.52 743.91 810.85 743.33 C 800.13 742.07 789.30 743.98 778.60 742.47 C 772.64 741.59 766.59 742.27 760.63 741.42 C 752.80 740.11 744.80 741.64 737.01 740.00 C 729.70 738.33 722.16 739.65 714.83 738.29 C 705.98 736.80 696.72 739.40 688.09 736.44 C 689.13 735.95 690.19 735.52 691.28 735.14 Z" />
</g>
<g id="#60983dff">
<path fill="#60983d" opacity="1.00" d=" M 562.81 797.14 C 564.67 776.73 567.59 756.37 572.43 736.43 C 577.86 739.96 583.48 743.29 589.70 745.21 C 594.76 746.62 598.27 750.90 603.16 752.68 C 610.90 755.70 618.88 758.07 626.55 761.28 C 628.17 761.93 629.80 762.57 631.45 763.19 C 628.23 766.50 625.67 770.35 622.97 774.07 C 615.67 784.39 608.06 794.50 600.82 804.86 C 590.67 818.27 582.05 832.74 572.82 846.78 C 569.17 852.17 566.40 858.10 562.59 863.39 C 560.35 841.37 561.36 819.18 562.81 797.14 Z" />
</g>
<g id="#5e993fff">
<path fill="#5e993f" opacity="1.00" d=" M 427.60 757.56 C 433.78 751.74 440.47 746.20 448.36 742.87 C 450.12 749.47 451.58 756.15 452.60 762.91 C 455.57 782.31 458.25 801.82 458.74 821.46 C 456.55 832.61 457.84 844.04 457.40 855.30 C 456.19 855.67 454.98 856.05 453.79 856.44 C 446.27 843.95 439.02 831.29 430.82 819.22 C 425.93 811.49 420.88 803.86 415.29 796.61 C 413.93 794.39 411.46 792.17 412.28 789.32 C 414.15 780.75 414.84 771.99 415.31 763.25 C 415.81 763.49 416.83 763.98 417.33 764.22 C 421.03 762.47 424.56 760.30 427.60 757.56 Z" />
</g>
<g id="#a8bf59ff">
<path fill="#a8bf59" opacity="1.00" d=" M 626.55 761.28 C 626.88 757.69 627.38 754.13 627.72 750.56 C 629.04 754.74 630.62 758.86 631.45 763.19 C 629.80 762.57 628.17 761.93 626.55 761.28 Z" />
</g>
<g id="#9abb44ff">
<path fill="#9abb44" opacity="1.00" d=" M 644.19 787.11 C 651.96 776.35 659.94 765.67 668.83 755.79 C 704.94 757.57 741.01 759.89 777.08 762.29 C 788.43 763.16 799.83 763.40 811.14 764.61 C 804.86 769.42 797.59 772.64 790.93 776.86 C 779.17 784.15 766.56 789.90 754.44 796.54 C 750.51 798.84 746.03 799.91 741.97 801.92 C 733.76 806.57 725.65 811.42 717.40 816.00 C 716.22 816.98 715.12 818.06 714.03 819.14 C 709.74 818.86 705.36 817.84 701.09 818.76 C 696.57 820.75 694.78 825.76 693.94 830.27 C 693.34 829.44 692.73 828.64 692.12 827.85 C 681.88 830.60 671.69 834.07 660.99 834.35 C 650.23 834.43 639.12 833.92 629.05 829.77 C 625.05 828.12 621.18 826.18 617.26 824.37 C 620.71 819.85 623.49 814.88 626.95 810.37 C 640.06 813.39 653.10 816.74 666.01 820.52 C 668.92 821.23 671.98 821.92 674.98 821.28 C 680.53 820.11 685.22 814.25 683.41 808.48 C 682.50 803.46 677.47 801.20 673.13 799.81 C 662.94 796.59 652.54 794.05 642.17 791.52 C 641.84 789.78 643.42 788.50 644.19 787.11 Z" />
</g>
<g id="#051f13ff">
<path fill="#051f13" opacity="1.00" d=" M 273.90 770.31 C 295.68 767.04 317.33 762.91 338.89 758.43 C 339.39 758.72 340.40 759.29 340.90 759.58 C 332.87 761.60 324.64 762.61 316.60 764.57 C 307.41 766.92 297.95 767.76 288.65 769.55 C 284.26 769.99 280.20 771.99 275.82 772.45 C 267.73 772.32 259.98 775.00 251.97 775.72 C 244.38 777.26 236.68 778.08 228.99 778.91 C 225.20 779.19 221.25 780.70 217.55 779.17 C 221.36 778.52 225.18 777.92 229.01 777.36 C 243.93 774.74 258.97 772.87 273.90 770.31 Z" />
</g>
<g id="#5b973dff">
<path fill="#5b973d" opacity="1.00" d=" M 811.14 764.61 C 839.13 764.96 867.19 767.68 895.23 768.35 C 893.47 772.04 890.19 774.60 887.23 777.29 C 882.49 781.53 876.85 784.59 871.09 787.21 C 863.79 790.51 855.76 791.43 848.00 793.05 C 844.33 793.69 840.79 796.23 840.01 800.03 C 838.75 803.92 839.93 807.98 839.91 811.95 C 832.33 823.61 819.54 831.43 805.98 834.11 C 797.99 836.04 789.81 834.29 781.83 833.32 C 767.05 830.76 752.39 827.62 737.68 824.76 L 737.61 824.49 C 737.10 822.36 736.64 819.53 734.03 819.05 C 728.60 817.50 722.95 816.91 717.40 816.00 C 725.65 811.42 733.76 806.57 741.97 801.92 C 746.03 799.91 750.51 798.84 754.44 796.54 C 766.56 789.90 779.17 784.15 790.93 776.86 C 797.59 772.64 804.86 769.42 811.14 764.61 Z" />
</g>
<g id="#5b983dff">
<path fill="#5b983d" opacity="1.00" d=" M 245.96 797.24 C 251.39 796.61 256.77 795.15 262.20 794.85 C 271.21 799.04 278.79 805.63 287.46 810.42 C 304.70 820.06 321.95 830.86 341.69 834.43 C 353.20 837.42 365.17 837.34 376.96 837.02 C 387.45 836.64 397.23 832.32 406.37 827.49 C 417.76 843.89 427.53 861.33 437.53 878.59 C 442.75 887.81 447.31 897.37 452.27 906.72 C 453.89 909.89 455.44 913.10 456.57 916.49 C 445.65 916.88 434.41 916.07 424.26 911.70 C 417.05 908.53 409.94 905.09 403.06 901.25 C 407.34 898.27 412.41 895.37 413.94 890.00 C 416.28 883.35 411.12 875.33 404.02 875.01 C 398.26 875.13 393.24 878.49 388.78 881.81 C 383.93 885.57 378.69 888.92 374.53 893.49 C 372.93 894.97 371.47 897.12 369.06 897.14 C 362.07 897.68 355.07 896.68 348.20 895.45 C 338.17 893.67 328.14 890.99 319.18 886.02 C 327.84 879.33 337.66 874.36 347.38 869.43 C 350.22 867.84 353.45 866.05 354.59 862.80 C 356.54 857.20 353.63 849.99 347.66 848.38 C 341.52 846.73 335.62 850.09 330.07 852.26 C 318.67 857.60 306.98 862.47 296.33 869.27 C 292.79 871.40 289.51 874.07 285.58 875.48 C 282.00 876.41 278.26 875.95 274.61 875.90 L 274.59 875.67 C 275.16 873.15 273.06 872.37 270.97 872.35 C 259.60 871.28 248.45 866.75 240.09 858.90 C 238.22 856.58 238.85 853.43 239.37 850.77 C 241.08 848.53 243.91 846.92 244.41 843.95 C 245.15 838.95 242.84 832.55 237.33 831.47 C 230.56 830.18 223.71 832.96 216.90 831.59 C 201.94 829.13 187.79 822.02 176.49 811.97 C 179.04 810.44 181.57 808.85 184.26 807.58 C 204.78 804.00 225.40 800.73 245.96 797.24 Z" />
</g>
<g id="#6aa046ff">
<path fill="#6aa046" opacity="1.00" d=" M 714.03 819.14 C 715.12 818.06 716.22 816.98 717.40 816.00 C 722.95 816.91 728.60 817.50 734.03 819.05 C 736.64 819.53 737.10 822.36 737.61 824.49 C 729.64 822.94 721.76 820.99 713.81 819.36 L 714.03 819.14 Z" />
</g>
<g id="#6d9c4fff">
<path fill="#6d9c4f" opacity="1.00" d=" M 457.40 855.30 C 457.84 844.04 456.55 832.61 458.74 821.46 C 459.10 829.63 459.08 837.81 459.08 845.98 C 458.89 851.84 459.16 857.77 457.89 863.54 C 456.47 861.19 455.13 858.82 453.79 856.44 C 454.98 856.05 456.19 855.67 457.40 855.30 Z" />
</g>
<g id="#679f44ff">
<path fill="#679f44" opacity="1.00" d=" M 704.39 842.54 C 704.43 842.01 704.53 840.96 704.58 840.43 C 729.50 846.49 754.52 852.22 779.72 856.97 C 770.01 868.18 754.98 873.13 740.75 875.47 C 745.96 872.05 751.55 868.83 757.92 868.40 C 760.91 868.34 760.67 864.55 761.61 862.52 C 762.80 862.09 764.01 861.68 765.22 861.29 C 764.67 858.22 762.16 856.50 759.26 855.92 C 751.89 854.05 744.61 851.55 736.98 850.93 C 731.71 850.42 726.39 849.59 721.55 847.34 C 716.13 844.68 709.79 845.29 704.39 842.54 Z" />
</g>
<g id="#66a34bff">
<path fill="#66a34b" opacity="1.00" d=" M 230.25 854.09 C 233.36 853.18 236.43 852.12 239.37 850.77 C 238.85 853.43 238.22 856.58 240.09 858.90 C 248.45 866.75 259.60 871.28 270.97 872.35 C 273.06 872.37 275.16 873.15 274.59 875.67 C 260.81 874.24 247.66 868.72 236.70 860.30 C 234.23 858.54 232.19 856.32 230.25 854.09 Z" />
</g>
<g id="#83b249ff">
<path fill="#83b249" opacity="1.00" d=" M 581.74 880.10 C 583.60 877.35 585.28 874.50 586.93 871.64 C 587.26 871.94 587.91 872.55 588.23 872.86 C 586.47 876.19 585.18 879.77 585.42 883.61 C 584.23 882.39 582.98 881.24 581.74 880.10 Z" />
</g>
<g id="#5f9a40ff">
<path fill="#5f9a40" opacity="1.00" d=" M 574.06 894.01 C 576.48 889.30 578.82 884.53 581.74 880.10 C 582.98 881.24 584.23 882.39 585.42 883.61 C 589.25 889.05 595.49 891.65 600.97 895.04 C 605.48 897.74 609.87 900.66 614.12 903.76 C 603.17 909.02 592.14 914.63 580.07 916.76 C 574.40 917.83 568.60 917.78 562.86 917.63 C 565.54 909.31 570.29 901.86 574.06 894.01 Z" />
</g>
</svg>
